<?xml version="1.0" encoding="utf-8"?>
<!-- Generator: Adobe Illustrator 15.0.0, SVG Export Plug-In . SVG Version: 6.00 Build 0)  -->
<!DOCTYPE svg PUBLIC "-//W3C//DTD SVG 1.1//EN" "http://www.w3.org/Graphics/SVG/1.1/DTD/svg11.dtd">
<svg version="1.1" id="Warstwa_1" xmlns="http://www.w3.org/2000/svg" xmlns:xlink="http://www.w3.org/1999/xlink" x="0px" y="0px"
	 width="28px" height="32px" viewBox="0 0 28 32" enable-background="new 0 0 28 32" xml:space="preserve">
<g>
	<path fill="#323245" d="M25,4h-8V3c0-1.654-1.346-3-3-3s-3,1.346-3,3v1H3C1.346,4,0,5.346,0,7v2c0,0.552,0.447,1,1,1h2v17
		c0,2.757,2.243,5,5,5h12c2.757,0,5-2.243,5-5V10h2c0.553,0,1-0.448,1-1V7C28,5.346,26.654,4,25,4z M13,3c0-0.551,0.448-1,1-1
		s1,0.449,1,1v1h-2V3z M23,27c0,1.654-1.346,3-3,3H8c-1.654,0-3-1.346-3-3V10h18V27z M26,8H2V7c0-0.551,0.448-1,1-1h22
		c0.552,0,1,0.449,1,1V8z"/>
	<path fill="#323245" d="M9,27.994c0.553,0,1-0.447,1-1V13.006c0-0.552-0.447-1-1-1s-1,0.448-1,1v13.988
		C8,27.547,8.447,27.994,9,27.994z"/>
	<path fill="#323245" d="M14,27.994c0.553,0,1-0.447,1-1V13.006c0-0.552-0.447-1-1-1s-1,0.448-1,1v13.988
		C13,27.547,13.447,27.994,14,27.994z"/>
	<path fill="#323245" d="M19,27.994c0.553,0,1-0.447,1-1V13.006c0-0.552-0.447-1-1-1s-1,0.448-1,1v13.988
		C18,27.547,18.447,27.994,19,27.994z"/>
</g>
</svg>
