<?xml version="1.0" encoding="utf-8"?>
<!-- Generator: Adobe Illustrator 15.0.0, SVG Export Plug-In . SVG Version: 6.00 Build 0)  -->
<!DOCTYPE svg PUBLIC "-//W3C//DTD SVG 1.1//EN" "http://www.w3.org/Graphics/SVG/1.1/DTD/svg11.dtd">
<svg version="1.1" id="Warstwa_1" xmlns="http://www.w3.org/2000/svg" xmlns:xlink="http://www.w3.org/1999/xlink" x="0px" y="0px"
	 width="179.5px" height="104px" viewBox="0 0 179.5 104" enable-background="new 0 0 179.5 104" xml:space="preserve">
<g>
	<path fill="#FFFFFF" d="M13.131,80.045v-45.21h13.135c5.527,0,10.092,1.843,13.693,5.527c3.601,3.684,5.401,8.416,5.401,14.189
		v5.809c0,5.795-1.801,10.525-5.401,14.189c-3.602,3.664-8.166,5.496-13.693,5.496H13.131z M16.825,38.003v38.876h9.438
		c4.472,0,8.15-1.563,11.039-4.686c2.888-3.123,4.33-7.074,4.33-11.852v-5.896c0-4.715-1.448-8.635-4.347-11.758
		c-2.897-3.125-6.571-4.686-11.022-4.686L16.825,38.003L16.825,38.003z"/>
	<path fill="#FFFFFF" d="M62.756,80.697c-4.203,0-7.696-1.553-10.479-4.656C49.491,72.936,48.1,69.002,48.1,64.24v-1.707
		c0-4.803,1.382-8.787,4.146-11.955c2.765-3.167,6.111-4.75,10.046-4.75c4.118,0,7.358,1.304,9.719,3.912
		c2.359,2.607,3.539,6.086,3.539,10.434v3.166H51.825v0.898c0,3.779,1.004,6.939,3.013,9.48c2.008,2.541,4.647,3.811,7.918,3.811
		c2.318,0,4.295-0.32,5.932-0.963c1.635-0.641,3.031-1.563,4.191-2.764l1.584,2.547c-1.264,1.33-2.862,2.387-4.799,3.17
		C67.729,80.305,65.426,80.697,62.756,80.697z M62.291,48.994c-2.755,0-5.063,1.048-6.925,3.143
		c-1.862,2.096-2.95,4.723-3.261,7.881l0.063,0.154h19.687v-0.928c0-2.912-0.859-5.348-2.577-7.309
		C67.558,49.975,65.229,48.994,62.291,48.994z"/>
	<path fill="#FFFFFF" d="M106.297,64.178c0,5.031-1.14,9.041-3.416,12.033c-2.277,2.992-5.414,4.486-9.408,4.486
		c-2.465,0-4.586-0.492-6.365-1.475c-1.78-0.984-3.219-2.396-4.316-4.238l-0.402,5.061H79.19V31.606h3.726v20.121
		c1.118-1.883,2.547-3.338,4.285-4.361c1.739-1.025,3.809-1.537,6.21-1.537c4.037,0,7.193,1.609,9.472,4.828
		c2.276,3.219,3.416,7.51,3.416,12.871v0.65H106.297z M102.538,63.527c0-4.303-0.827-7.801-2.483-10.494
		c-1.655-2.692-4.108-4.039-7.358-4.039c-2.588,0-4.673,0.645-6.257,1.934c-1.583,1.289-2.76,2.941-3.523,4.957v15.252
		c0.827,1.953,2.064,3.508,3.711,4.662c1.646,1.154,3.688,1.73,6.133,1.73c3.248,0,5.691-1.207,7.328-3.617
		c1.635-2.412,2.451-5.654,2.451-9.73L102.538,63.527L102.538,63.527z"/>
	<path fill="#FFFFFF" d="M132.943,74.549c-1.076,1.967-2.525,3.482-4.348,4.549c-1.821,1.066-3.975,1.6-6.459,1.6
		c-3.539,0-6.313-1.199-8.32-3.602c-2.009-2.402-3.012-6.127-3.012-11.178V46.447h3.726v19.57c0,4.107,0.698,7.053,2.097,8.836
		c1.396,1.785,3.379,2.676,5.945,2.676c2.814,0,5.063-0.633,6.738-1.896c1.676-1.266,2.846-3.008,3.509-5.229V46.447h3.726v33.598
		h-3.291L132.943,74.549z"/>
	<path fill="#FFFFFF" d="M148.475,37.847v8.601h7.391v3.043h-7.391v21.893c0,2.193,0.398,3.752,1.195,4.672
		c0.797,0.922,1.857,1.383,3.184,1.383c0.6,0,1.186-0.025,1.754-0.078c0.568-0.051,1.227-0.141,1.973-0.264l0.559,2.762
		c-0.621,0.27-1.377,0.477-2.268,0.621c-0.89,0.146-1.779,0.217-2.67,0.217c-2.359,0-4.197-0.744-5.512-2.234
		s-1.973-3.852-1.973-7.08V49.49h-5.807v-3.043h5.807v-8.601H148.475z"/>
</g>
<circle fill="#302F5F" cx="161.2" cy="31.002" r="10"/>
<g>
	<path fill="#484872" d="M163.12,27.252v5.59c0,0.973-0.323,1.727-0.97,2.262c-0.646,0.535-1.493,0.803-2.54,0.803
		c-1.06,0-1.912-0.268-2.562-0.803c-0.648-0.535-0.973-1.289-0.973-2.262v-5.59h1.986v5.59c0,0.523,0.135,0.911,0.404,1.163
		c0.269,0.252,0.649,0.378,1.143,0.378c0.488,0,0.864-0.125,1.128-0.375c0.265-0.25,0.396-0.639,0.396-1.166v-5.59H163.12z"/>
	<path fill="#484872" d="M166.614,35.783h-1.976v-8.531h1.976V35.783z"/>
</g>
<g>
	<path fill="#8CF9EE" d="M162.745,26.845v5.59c0,0.973-0.323,1.727-0.97,2.262c-0.646,0.535-1.493,0.803-2.54,0.803
		c-1.06,0-1.912-0.268-2.562-0.803c-0.648-0.535-0.973-1.289-0.973-2.262v-5.59h1.986v5.59c0,0.523,0.135,0.911,0.404,1.163
		c0.269,0.252,0.649,0.378,1.143,0.378c0.488,0,0.864-0.125,1.128-0.375c0.265-0.25,0.396-0.639,0.396-1.166v-5.59H162.745z"/>
	<path fill="#8CF9EE" d="M166.239,35.377h-1.976v-8.532h1.976V35.377z"/>
</g>
<g>
	<path fill="#7DE2D6" d="M158.389,33.943c0.271,0.252,0.65,0.378,1.144,0.378c0.488,0,0.864-0.125,1.128-0.375
		s0.396-0.639,0.396-1.166v-5.59h1.688v-0.345h-1.985v5.59c0,0.527-0.133,0.916-0.396,1.166s-0.64,0.375-1.128,0.375
		c-0.431,0-0.758-0.114-1.019-0.306C158.272,33.764,158.313,33.872,158.389,33.943z"/>
	<path fill="#7DE2D6" d="M156,32.78v-5.59h1.688v-0.345h-1.986v5.59c0,0.869,0.273,1.554,0.791,2.073
		C156.17,34.04,156,33.467,156,32.78z"/>
</g>
</svg>
