<?xml version="1.0" encoding="utf-8"?>
<!DOCTYPE svg PUBLIC "-//W3C//DTD SVG 1.1//EN" "http://www.w3.org/Graphics/SVG/1.1/DTD/svg11.dtd">
<svg version="1.1" id="Warstwa_1" xmlns="http://www.w3.org/2000/svg" xmlns:xlink="http://www.w3.org/1999/xlink" x="0px" y="0px"
	 width="220px" height="50px" viewBox="0 0 220 50" enable-background="new 0 0 220 50" xml:space="preserve">
<path fill="#52B2A6" d="M139.904,50h45.038c10.129-10.093,19.819-20.86,19.819-23.084c0-2.508-11.754-15.895-22.974-26.916h-38.675
	C132.005,10.764,120.5,23.813,120.5,26.916C120.5,29.657,129.927,40.165,139.904,50z"/>
<g>
	<path fill="#FFFFFF" d="M16.843,39.672V11.91h8.065c3.394,0,6.197,1.132,8.409,3.394c2.211,2.262,3.316,5.167,3.316,8.713v3.566
		c0,3.558-1.106,6.463-3.316,8.713c-2.212,2.249-5.015,3.375-8.409,3.375H16.843z M19.111,13.855v23.872h5.795
		c2.746,0,5.004-0.959,6.778-2.877c1.773-1.918,2.659-4.345,2.659-7.278v-3.62c0-2.896-0.889-5.303-2.669-7.22
		c-1.779-1.919-4.035-2.878-6.768-2.878L19.111,13.855L19.111,13.855z"/>
	<path fill="#FFFFFF" d="M47.315,40.072c-2.581,0-4.726-0.954-6.435-2.859c-1.71-1.906-2.564-4.322-2.564-7.246v-1.049
		c0-2.948,0.849-5.396,2.546-7.341c1.697-1.945,3.752-2.917,6.169-2.917c2.529,0,4.518,0.801,5.968,2.402
		c1.449,1.602,2.173,3.737,2.173,6.407v1.943H40.604v0.552c0,2.321,0.616,4.262,1.85,5.822c1.233,1.56,2.854,2.34,4.862,2.34
		c1.423,0,2.637-0.197,3.643-0.591c1.004-0.394,1.861-0.96,2.574-1.697l0.973,1.564c-0.776,0.816-1.757,1.465-2.947,1.946
		C50.369,39.831,48.955,40.072,47.315,40.072z M47.03,20.604c-1.692,0-3.109,0.644-4.252,1.93c-1.144,1.287-1.812,2.9-2.002,4.84
		l0.039,0.095h12.089v-0.569c0-1.789-0.528-3.284-1.583-4.488C50.265,21.206,48.834,20.604,47.03,20.604z"/>
	<path fill="#FFFFFF" d="M74.052,29.928c0,3.09-0.7,5.553-2.098,7.39c-1.399,1.838-3.325,2.755-5.777,2.755
		c-1.514,0-2.816-0.302-3.909-0.905c-1.093-0.604-1.976-1.472-2.65-2.603l-0.246,3.107h-1.966V9.927h2.288v12.356
		c0.687-1.157,1.564-2.05,2.631-2.679s2.339-0.943,3.813-0.943c2.479,0,4.416,0.988,5.816,2.964
		c1.398,1.978,2.098,4.612,2.098,7.903L74.052,29.928L74.052,29.928z M71.744,29.528c0-2.642-0.508-4.789-1.525-6.443
		c-1.016-1.653-2.522-2.48-4.518-2.48c-1.589,0-2.87,0.396-3.843,1.188c-0.972,0.791-1.695,1.807-2.163,3.044v9.365
		c0.508,1.199,1.267,2.154,2.279,2.863c1.01,0.708,2.265,1.063,3.766,1.063c1.994,0,3.495-0.741,4.5-2.222
		c1.004-1.48,1.505-3.472,1.505-5.975L71.744,29.528L71.744,29.528z"/>
	<path fill="#FFFFFF" d="M90.415,36.297c-0.661,1.208-1.551,2.139-2.67,2.793c-1.118,0.655-2.441,0.982-3.966,0.982
		c-2.172,0-3.876-0.735-5.108-2.212c-1.234-1.475-1.85-3.762-1.85-6.863V19.041h2.288v12.017c0,2.522,0.429,4.331,1.288,5.426
		c0.857,1.097,2.075,1.644,3.651,1.644c1.727,0,3.108-0.389,4.138-1.164c1.029-0.778,1.747-1.848,2.154-3.211V19.041h2.288v20.631
		h-2.021L90.415,36.297z"/>
	<path fill="#FFFFFF" d="M99.952,13.76v5.281h4.539v1.869h-4.539v13.444c0,1.347,0.245,2.305,0.734,2.869
		c0.489,0.566,1.141,0.849,1.955,0.849c0.369,0,0.729-0.015,1.077-0.047c0.35-0.031,0.754-0.087,1.212-0.163l0.344,1.696
		c-0.381,0.166-0.846,0.293-1.393,0.382c-0.546,0.089-1.093,0.133-1.64,0.133c-1.449,0-2.577-0.457-3.385-1.372
		c-0.807-0.915-1.211-2.365-1.211-4.348V20.909h-3.566v-1.869h3.566v-5.281L99.952,13.76L99.952,13.76z"/>
</g>
<path fill="#191547" d="M206.762,13.911c0,1.173-10.102,11.255-11.256,11.255c-1.154,0.001-11.256-9.789-11.256-11.255
	c0-1.467,9.624-11.256,11.256-11.256S206.762,12.737,206.762,13.911z"/>
<g>
	<path fill="#65C9BF" d="M152.797,14.693v12.096c0,3.616,1.372,5.455,3.803,5.455c2.494,0,3.866-1.745,3.866-5.455V14.693h4.738
		v11.784c0,6.484-3.273,9.57-8.76,9.57c-5.3,0-8.417-2.931-8.417-9.633V14.693H152.797z"/>
	<path fill="#65C9BF" d="M174.091,14.693v21.012h-4.77V14.693H174.091z"/>
</g>
<g>
	<path fill="#FFFFFF" d="M191.468,12.525l0.86,2.461c0.145,0.398,0.262,0.76,0.353,1.122h0.027c0.1-0.362,0.226-0.724,0.371-1.122
		l0.851-2.461h0.832l-1.719,4.379h-0.761l-1.665-4.379H191.468z"/>
	<path fill="#FFFFFF" d="M196.986,11.765h-0.019l-1.022,0.552l-0.153-0.606l1.284-0.688h0.679v5.881h-0.769V11.765z"/>
</g>
</svg>
