<?xml version="1.0" encoding="utf-8"?>
<!-- Generator: Adobe Illustrator 15.0.0, SVG Export Plug-In . SVG Version: 6.00 Build 0)  -->
<!DOCTYPE svg PUBLIC "-//W3C//DTD SVG 1.1//EN" "http://www.w3.org/Graphics/SVG/1.1/DTD/svg11.dtd">
<svg version="1.1" id="Warstwa_1" xmlns="http://www.w3.org/2000/svg" xmlns:xlink="http://www.w3.org/1999/xlink" x="0px" y="0px"
	 width="50px" height="50px" viewBox="0 0 50 50" enable-background="new 0 0 50 50" xml:space="preserve">
<rect fill="#6CC2BB" width="50" height="50"/>
<path fill="#52B3A7" d="M19.615,50h10.653C36.099,44.996,45.084,36.012,50,30.254V19.911C45.136,14.01,36.272,4.876,30.357,0H19.536
	C13.621,4.778,4.836,13.651,0,19.604v10.954C4.883,36.371,13.783,45.098,19.615,50z"/>
<path fill="#221F45" d="M48.069,8.791c0,0.715-6.157,6.86-6.86,6.86c-0.703,0-6.86-5.966-6.86-6.86c0-0.894,5.866-6.86,6.86-6.86
	C42.204,1.931,48.069,8.075,48.069,8.791z"/>
<g>
	<path fill="#6CC2BB" d="M16.797,14.693v12.096c0,3.615,1.372,5.455,3.803,5.455c2.494,0,3.866-1.745,3.866-5.455V14.693h4.738
		v11.784c0,6.484-3.272,9.57-8.761,9.57c-5.299,0-8.416-2.931-8.416-9.633V14.693H16.797z"/>
	<path fill="#6CC2BB" d="M38.091,14.693v21.012H33.32V14.693H38.091z"/>
</g>
<g>
	<path fill="#FFFFFF" d="M38.748,7.946l0.524,1.5c0.088,0.242,0.159,0.463,0.215,0.684h0.017c0.062-0.22,0.138-0.441,0.226-0.684
		l0.519-1.5h0.508l-1.048,2.669h-0.464l-1.015-2.669H38.748z"/>
	<path fill="#FFFFFF" d="M42.111,7.483H42.1l-0.623,0.336L41.384,7.45l0.782-0.419h0.414v3.584h-0.469V7.483z"/>
</g>
</svg>
