<?xml version="1.0" encoding="utf-8"?>
<!-- Generator: Adobe Illustrator 15.0.0, SVG Export Plug-In . SVG Version: 6.00 Build 0)  -->
<!DOCTYPE svg PUBLIC "-//W3C//DTD SVG 1.1//EN" "http://www.w3.org/Graphics/SVG/1.1/DTD/svg11.dtd">
<svg version="1.1" id="Warstwa_1" xmlns="http://www.w3.org/2000/svg" xmlns:xlink="http://www.w3.org/1999/xlink" x="0px" y="0px"
	 width="179.5px" height="104px" viewBox="0 0 179.5 104" enable-background="new 0 0 179.5 104" xml:space="preserve">
<g>
	<path fill="#FFFFFF" d="M-398.688,72.5V27.29h13.135c5.527,0,10.092,1.843,13.693,5.527s5.402,8.415,5.402,14.19v5.807
		c0,5.796-1.801,10.526-5.402,14.19s-8.166,5.496-13.693,5.496H-398.688z M-394.993,30.458v38.875h9.439
		c4.471,0,8.15-1.562,11.038-4.685s4.331-7.074,4.331-11.852v-5.895c0-4.716-1.449-8.635-4.347-11.759
		c-2.898-3.124-6.572-4.685-11.022-4.685H-394.993z"/>
	<path fill="#FFFFFF" d="M-349.063,73.152c-4.202,0-7.696-1.552-10.479-4.657c-2.785-3.105-4.177-7.038-4.177-11.799v-1.708
		c0-4.802,1.382-8.787,4.146-11.955c2.764-3.167,6.111-4.75,10.045-4.75c4.119,0,7.359,1.304,9.719,3.912
		c2.36,2.608,3.54,6.086,3.54,10.433v3.167h-23.724v0.898c0,3.78,1.004,6.94,3.013,9.48c2.007,2.541,4.647,3.811,7.918,3.811
		c2.318,0,4.295-0.321,5.931-0.962c1.635-0.642,3.032-1.563,4.191-2.764l1.584,2.546c-1.263,1.33-2.862,2.387-4.798,3.171
		S-346.393,73.152-349.063,73.152z M-349.528,41.449c-2.754,0-5.062,1.048-6.924,3.143c-1.863,2.095-2.95,4.722-3.261,7.88
		l0.062,0.155h19.687v-0.929c0-2.911-0.859-5.347-2.577-7.308C-344.261,42.43-346.589,41.449-349.528,41.449z"/>
	<path fill="#FFFFFF" d="M-305.522,56.633c0,5.03-1.139,9.041-3.416,12.032c-2.277,2.992-5.413,4.487-9.408,4.487
		c-2.464,0-4.585-0.492-6.365-1.475s-3.219-2.396-4.316-4.238l-0.403,5.061h-3.198V24.061h3.726v20.121
		c1.118-1.883,2.547-3.338,4.285-4.362c1.739-1.025,3.809-1.537,6.21-1.537c4.037,0,7.193,1.61,9.471,4.828
		c2.277,3.219,3.416,7.51,3.416,12.871V56.633z M-309.28,55.982c0-4.303-0.828-7.801-2.483-10.494
		c-1.656-2.692-4.109-4.039-7.359-4.039c-2.588,0-4.673,0.645-6.257,1.934c-1.583,1.289-2.759,2.942-3.524,4.958v15.25
		c0.828,1.954,2.065,3.509,3.711,4.663s3.689,1.73,6.133,1.73c3.249,0,5.692-1.206,7.328-3.617c1.635-2.412,2.452-5.655,2.452-9.73
		V55.982z"/>
	<path fill="#FFFFFF" d="M-278.875,67.004c-1.076,1.967-2.525,3.483-4.347,4.549c-1.822,1.066-3.975,1.599-6.459,1.599
		c-3.54,0-6.313-1.2-8.321-3.602c-2.009-2.401-3.012-6.127-3.012-11.178V38.903h3.726v19.57c0,4.107,0.698,7.053,2.096,8.836
		c1.397,1.784,3.38,2.676,5.946,2.676c2.815,0,5.062-0.633,6.738-1.898s2.846-3.007,3.509-5.227V38.903h3.726V72.5h-3.291
		L-278.875,67.004z"/>
	<path fill="#FFFFFF" d="M-263.344,30.302v8.601h7.391v3.043h-7.391v21.891c0,2.194,0.398,3.752,1.196,4.673
		c0.796,0.921,1.857,1.382,3.183,1.382c0.6,0,1.185-0.025,1.754-0.078c0.569-0.051,1.227-0.14,1.972-0.264l0.559,2.763
		c-0.621,0.269-1.377,0.476-2.267,0.621c-0.89,0.145-1.78,0.217-2.67,0.217c-2.36,0-4.197-0.745-5.512-2.235
		c-1.314-1.491-1.972-3.851-1.972-7.08V41.946h-5.807v-3.043h5.807v-8.601H-263.344z"/>
</g>
<circle fill="#54EADF" cx="-250.618" cy="23.457" r="10"/>
<g>
	<path fill="#8CF9EE" d="M-248.698,19.707v5.59c0,0.973-0.323,1.727-0.97,2.262s-1.493,0.803-2.54,0.803
		c-1.059,0-1.912-0.268-2.561-0.803s-0.973-1.289-0.973-2.262v-5.59h1.986v5.59c0,0.523,0.135,0.911,0.404,1.163
		s0.65,0.378,1.143,0.378c0.488,0,0.864-0.125,1.128-0.375s0.396-0.639,0.396-1.166v-5.59H-248.698z"/>
	<path fill="#8CF9EE" d="M-245.204,28.238h-1.975v-8.531h1.975V28.238z"/>
</g>
<g>
	<path fill="#302F5F" d="M-249.073,19.3v5.59c0,0.973-0.323,1.727-0.97,2.262s-1.493,0.803-2.54,0.803
		c-1.059,0-1.912-0.268-2.561-0.803s-0.973-1.289-0.973-2.262V19.3h1.986v5.59c0,0.523,0.135,0.911,0.404,1.163
		s0.65,0.378,1.143,0.378c0.488,0,0.864-0.125,1.128-0.375s0.396-0.639,0.396-1.166V19.3H-249.073z"/>
	<path fill="#302F5F" d="M-245.579,27.832h-1.975V19.3h1.975V27.832z"/>
</g>
<g>
	<path fill="#1F1F42" d="M-253.429,26.398c0.27,0.252,0.65,0.378,1.143,0.378c0.488,0,0.864-0.125,1.128-0.375
		s0.396-0.639,0.396-1.166v-5.59h1.689V19.3h-1.986v5.59c0,0.527-0.132,0.916-0.396,1.166s-0.64,0.375-1.128,0.375
		c-0.43,0-0.758-0.114-1.018-0.306C-253.546,26.219-253.505,26.327-253.429,26.398z"/>
	<path fill="#1F1F42" d="M-255.819,25.235v-5.59h1.689V19.3h-1.986v5.59c0,0.869,0.273,1.554,0.791,2.073
		C-255.648,26.495-255.819,25.922-255.819,25.235z"/>
</g>
<g>
	<path fill="#302F5F" d="M-195.688,72.5V27.29h13.135c5.527,0,10.092,1.843,13.693,5.527s5.402,8.415,5.402,14.19v5.807
		c0,5.796-1.801,10.526-5.402,14.19s-8.166,5.496-13.693,5.496H-195.688z M-191.993,30.458v38.875h9.439
		c4.471,0,8.15-1.562,11.038-4.685s4.331-7.074,4.331-11.852v-5.895c0-4.716-1.449-8.635-4.347-11.759
		c-2.898-3.124-6.572-4.685-11.022-4.685H-191.993z"/>
	<path fill="#302F5F" d="M-146.063,73.152c-4.202,0-7.696-1.552-10.479-4.657c-2.785-3.105-4.177-7.038-4.177-11.799v-1.708
		c0-4.802,1.382-8.787,4.146-11.955c2.764-3.167,6.111-4.75,10.045-4.75c4.119,0,7.359,1.304,9.719,3.912
		c2.36,2.608,3.54,6.086,3.54,10.433v3.167h-23.724v0.898c0,3.78,1.004,6.94,3.013,9.48c2.007,2.541,4.647,3.811,7.918,3.811
		c2.318,0,4.295-0.321,5.931-0.962c1.635-0.642,3.032-1.563,4.191-2.764l1.584,2.546c-1.263,1.33-2.862,2.387-4.798,3.171
		S-143.393,73.152-146.063,73.152z M-146.528,41.449c-2.754,0-5.062,1.048-6.924,3.143c-1.863,2.095-2.95,4.722-3.261,7.88
		l0.062,0.155h19.687v-0.929c0-2.911-0.859-5.347-2.577-7.308C-141.261,42.43-143.589,41.449-146.528,41.449z"/>
	<path fill="#302F5F" d="M-102.522,56.633c0,5.03-1.139,9.041-3.416,12.032c-2.277,2.992-5.413,4.487-9.408,4.487
		c-2.464,0-4.585-0.492-6.365-1.475s-3.219-2.396-4.316-4.238l-0.403,5.061h-3.198V24.061h3.726v20.121
		c1.118-1.883,2.547-3.338,4.285-4.362c1.739-1.025,3.809-1.537,6.21-1.537c4.037,0,7.193,1.61,9.471,4.828
		c2.277,3.219,3.416,7.51,3.416,12.871V56.633z M-106.28,55.982c0-4.303-0.828-7.801-2.483-10.494
		c-1.656-2.692-4.109-4.039-7.359-4.039c-2.588,0-4.673,0.645-6.257,1.934c-1.583,1.289-2.759,2.942-3.524,4.958v15.25
		c0.828,1.954,2.065,3.509,3.711,4.663s3.689,1.73,6.133,1.73c3.249,0,5.692-1.206,7.328-3.617c1.635-2.412,2.452-5.655,2.452-9.73
		V55.982z"/>
	<path fill="#302F5F" d="M-75.875,67.004c-1.076,1.967-2.525,3.483-4.347,4.549c-1.822,1.066-3.975,1.599-6.459,1.599
		c-3.54,0-6.313-1.2-8.321-3.602c-2.009-2.401-3.012-6.127-3.012-11.178V38.903h3.726v19.57c0,4.107,0.698,7.053,2.096,8.836
		c1.397,1.784,3.38,2.676,5.946,2.676c2.815,0,5.062-0.633,6.738-1.898s2.846-3.007,3.509-5.227V38.903h3.726V72.5h-3.291
		L-75.875,67.004z"/>
	<path fill="#302F5F" d="M-60.344,30.302v8.601h7.391v3.043h-7.391v21.891c0,2.194,0.398,3.752,1.196,4.673
		c0.796,0.921,1.857,1.382,3.183,1.382c0.6,0,1.185-0.025,1.754-0.078c0.569-0.051,1.227-0.14,1.972-0.264l0.559,2.763
		c-0.621,0.269-1.377,0.476-2.267,0.621c-0.89,0.145-1.78,0.217-2.67,0.217c-2.36,0-4.197-0.745-5.512-2.235
		c-1.314-1.491-1.972-3.851-1.972-7.08V41.946h-5.807v-3.043h5.807v-8.601H-60.344z"/>
</g>
<circle fill="#54EADF" cx="-47.618" cy="23.457" r="10"/>
<g>
	<path fill="#8CF9EE" d="M-45.698,19.707v5.59c0,0.973-0.323,1.727-0.97,2.262s-1.493,0.803-2.54,0.803
		c-1.059,0-1.912-0.268-2.561-0.803s-0.973-1.289-0.973-2.262v-5.59h1.986v5.59c0,0.523,0.135,0.911,0.404,1.163
		s0.65,0.378,1.143,0.378c0.488,0,0.864-0.125,1.128-0.375s0.396-0.639,0.396-1.166v-5.59H-45.698z"/>
	<path fill="#8CF9EE" d="M-42.204,28.238h-1.975v-8.531h1.975V28.238z"/>
</g>
<g>
	<path fill="#302F5F" d="M-46.073,19.3v5.59c0,0.973-0.323,1.727-0.97,2.262s-1.493,0.803-2.54,0.803
		c-1.059,0-1.912-0.268-2.561-0.803s-0.973-1.289-0.973-2.262V19.3h1.986v5.59c0,0.523,0.135,0.911,0.404,1.163
		s0.65,0.378,1.143,0.378c0.488,0,0.864-0.125,1.128-0.375s0.396-0.639,0.396-1.166V19.3H-46.073z"/>
	<path fill="#302F5F" d="M-42.579,27.832h-1.975V19.3h1.975V27.832z"/>
</g>
<g>
	<path fill="#1F1F42" d="M-50.429,26.398c0.27,0.252,0.65,0.378,1.143,0.378c0.488,0,0.864-0.125,1.128-0.375
		s0.396-0.639,0.396-1.166v-5.59h1.689V19.3h-1.986v5.59c0,0.527-0.132,0.916-0.396,1.166s-0.64,0.375-1.128,0.375
		c-0.43,0-0.758-0.114-1.018-0.306C-50.546,26.219-50.505,26.327-50.429,26.398z"/>
	<path fill="#1F1F42" d="M-52.819,25.235v-5.59h1.689V19.3h-1.986v5.59c0,0.869,0.273,1.554,0.791,2.073
		C-52.648,26.495-52.819,25.922-52.819,25.235z"/>
</g>
<g>
	<path fill="#302F5F" d="M13.764,72.5V27.29h13.135c5.527,0,10.092,1.843,13.693,5.527s5.402,8.415,5.402,14.19v5.807
		c0,5.796-1.801,10.526-5.402,14.19S32.426,72.5,26.898,72.5H13.764z M17.459,30.458v38.875h9.439c4.471,0,8.15-1.562,11.038-4.685
		s4.331-7.074,4.331-11.852v-5.895c0-4.716-1.449-8.635-4.347-11.759c-2.898-3.124-6.572-4.685-11.022-4.685H17.459z"/>
	<path fill="#302F5F" d="M63.39,73.152c-4.202,0-7.696-1.552-10.479-4.657c-2.785-3.105-4.177-7.038-4.177-11.799v-1.708
		c0-4.802,1.382-8.787,4.146-11.955c2.764-3.167,6.111-4.75,10.045-4.75c4.119,0,7.359,1.304,9.719,3.912
		c2.36,2.608,3.54,6.086,3.54,10.433v3.167H52.459v0.898c0,3.78,1.004,6.94,3.013,9.48c2.007,2.541,4.647,3.811,7.918,3.811
		c2.318,0,4.295-0.321,5.931-0.962c1.635-0.642,3.032-1.563,4.191-2.764l1.584,2.546c-1.263,1.33-2.862,2.387-4.798,3.171
		S66.06,73.152,63.39,73.152z M62.924,41.449c-2.754,0-5.062,1.048-6.924,3.143c-1.863,2.095-2.95,4.722-3.261,7.88l0.062,0.155
		h19.687v-0.929c0-2.911-0.859-5.347-2.577-7.308C68.191,42.43,65.863,41.449,62.924,41.449z"/>
	<path fill="#302F5F" d="M106.93,56.633c0,5.03-1.139,9.041-3.416,12.032c-2.277,2.992-5.413,4.487-9.408,4.487
		c-2.464,0-4.585-0.492-6.365-1.475s-3.219-2.396-4.316-4.238L83.021,72.5h-3.198V24.061h3.726v20.121
		c1.118-1.883,2.547-3.338,4.285-4.362c1.739-1.025,3.809-1.537,6.21-1.537c4.037,0,7.193,1.61,9.471,4.828
		c2.277,3.219,3.416,7.51,3.416,12.871V56.633z M103.172,55.982c0-4.303-0.828-7.801-2.483-10.494
		c-1.656-2.692-4.109-4.039-7.359-4.039c-2.588,0-4.673,0.645-6.257,1.934c-1.583,1.289-2.759,2.942-3.524,4.958v15.25
		c0.828,1.954,2.065,3.509,3.711,4.663s3.689,1.73,6.133,1.73c3.249,0,5.692-1.206,7.328-3.617c1.635-2.412,2.452-5.655,2.452-9.73
		V55.982z"/>
	<path fill="#302F5F" d="M133.577,67.004c-1.076,1.967-2.525,3.483-4.347,4.549c-1.822,1.066-3.975,1.599-6.459,1.599
		c-3.54,0-6.313-1.2-8.321-3.602c-2.009-2.401-3.012-6.127-3.012-11.178V38.903h3.726v19.57c0,4.107,0.698,7.053,2.096,8.836
		c1.397,1.784,3.38,2.676,5.946,2.676c2.815,0,5.062-0.633,6.738-1.898s2.846-3.007,3.509-5.227V38.903h3.726V72.5h-3.291
		L133.577,67.004z"/>
	<path fill="#302F5F" d="M149.108,30.302v8.601h7.391v3.043h-7.391v21.891c0,2.194,0.398,3.752,1.196,4.673
		c0.796,0.921,1.857,1.382,3.183,1.382c0.6,0,1.185-0.025,1.754-0.078c0.569-0.051,1.227-0.14,1.972-0.264l0.559,2.763
		c-0.621,0.269-1.377,0.476-2.267,0.621c-0.89,0.145-1.78,0.217-2.67,0.217c-2.36,0-4.197-0.745-5.512-2.235
		c-1.314-1.491-1.972-3.851-1.972-7.08V41.946h-5.807v-3.043h5.807v-8.601H149.108z"/>
</g>
<circle fill="#302F5F" cx="161.834" cy="23.457" r="10"/>
<g>
	<path fill="#484872" d="M163.754,19.707v5.59c0,0.973-0.323,1.727-0.97,2.262s-1.493,0.803-2.54,0.803
		c-1.059,0-1.912-0.268-2.561-0.803s-0.973-1.289-0.973-2.262v-5.59h1.986v5.59c0,0.523,0.135,0.911,0.404,1.163
		s0.65,0.378,1.143,0.378c0.488,0,0.864-0.125,1.128-0.375s0.396-0.639,0.396-1.166v-5.59H163.754z"/>
	<path fill="#484872" d="M167.248,28.238h-1.975v-8.531h1.975V28.238z"/>
</g>
<g>
	<path fill="#8CF9EE" d="M163.379,19.3v5.59c0,0.973-0.323,1.727-0.97,2.262s-1.493,0.803-2.54,0.803
		c-1.059,0-1.912-0.268-2.561-0.803s-0.973-1.289-0.973-2.262V19.3h1.986v5.59c0,0.523,0.135,0.911,0.404,1.163
		s0.65,0.378,1.143,0.378c0.488,0,0.864-0.125,1.128-0.375s0.396-0.639,0.396-1.166V19.3H163.379z"/>
	<path fill="#8CF9EE" d="M166.873,27.832h-1.975V19.3h1.975V27.832z"/>
</g>
<g>
	<path fill="#7DE2D6" d="M159.023,26.398c0.27,0.252,0.65,0.378,1.143,0.378c0.488,0,0.864-0.125,1.128-0.375
		s0.396-0.639,0.396-1.166v-5.59h1.689V19.3h-1.986v5.59c0,0.527-0.132,0.916-0.396,1.166s-0.64,0.375-1.128,0.375
		c-0.43,0-0.758-0.114-1.018-0.306C158.906,26.219,158.947,26.327,159.023,26.398z"/>
	<path fill="#7DE2D6" d="M156.633,25.235v-5.59h1.689V19.3h-1.986v5.59c0,0.869,0.273,1.554,0.791,2.073
		C156.804,26.495,156.633,25.922,156.633,25.235z"/>
</g>
</svg>
