<?xml version="1.0" encoding="utf-8"?>
<!-- Generator: Adobe Illustrator 15.0.0, SVG Export Plug-In . SVG Version: 6.00 Build 0)  -->
<!DOCTYPE svg PUBLIC "-//W3C//DTD SVG 1.1//EN" "http://www.w3.org/Graphics/SVG/1.1/DTD/svg11.dtd">
<svg version="1.1" id="Warstwa_1" xmlns="http://www.w3.org/2000/svg" xmlns:xlink="http://www.w3.org/1999/xlink" x="0px" y="0px"
	 width="80px" height="60px" viewBox="0 0 80 60" enable-background="new 0 0 80 60" xml:space="preserve">
<path fill="#E9F0F5" d="M80,55.749C80,58.096,78.097,60,75.748,60H4.252C1.904,60,0,58.096,0,55.749V4.252C0,1.904,1.904,0,4.252,0
	h71.496C78.097,0,80,1.904,80,4.252V55.749z"/>
<g id="_x36__21_">
	<g>
		<path fill="#AFC3CE" d="M33.749,16.46c-2.184,0-3.949,1.765-3.949,3.948c0,2.184,1.765,3.948,3.949,3.948
			c2.183,0,3.948-1.765,3.948-3.948C37.697,18.226,35.932,16.46,33.749,16.46z M33.749,22.4c-1.091,0-1.974-0.899-1.974-1.991
			c0-1.091,0.883-1.958,1.974-1.958c1.091,0,1.974,0.867,1.974,1.958C35.723,21.5,34.839,22.4,33.749,22.4z M53.491,12.511H29.8
			c-2.183,0-3.949,1.766-3.949,3.95v23.692c0,2.182,1.766,3.948,3.949,3.948h23.691c2.185,0,3.948-1.767,3.948-3.948V16.46
			C57.439,14.277,55.676,12.511,53.491,12.511z M29.8,42.142c-1.092,0-1.975-0.899-1.975-1.989v-0.932l7.834-6.997l9.936,9.918H29.8
			z M55.482,40.153c0,1.09-0.899,1.989-1.991,1.989h-5.104L41.1,34.759l8.443-8.41l5.939,5.905V40.153z M55.482,29.43l-5.939-6.035
			l-9.823,9.951L35.723,29.3l-7.898,7.257V16.46c0-1.092,0.883-1.959,1.975-1.959h23.691c1.092,0,1.991,0.867,1.991,1.959V29.43z"/>
	</g>
</g>
</svg>
