<?xml version="1.0" encoding="utf-8"?>
<!-- Generator: Adobe Illustrator 15.0.0, SVG Export Plug-In . SVG Version: 6.00 Build 0)  -->
<!DOCTYPE svg PUBLIC "-//W3C//DTD SVG 1.1//EN" "http://www.w3.org/Graphics/SVG/1.1/DTD/svg11.dtd">
<svg version="1.1" id="Warstwa_1" xmlns="http://www.w3.org/2000/svg" xmlns:xlink="http://www.w3.org/1999/xlink" x="0px" y="0px"
	 width="28px" height="32px" viewBox="0 0 28 32" enable-background="new 0 0 28 32" xml:space="preserve">
<g>
	<path fill="#E9F0F5" d="M22.875,11.854l-2.548-7.02c-0.188-0.518-0.74-0.792-1.232-0.613L2.158,10.402
		c-0.492,0.18-0.739,0.746-0.551,1.264l2.687,7.401V15.1c0-1.79,1.431-3.246,3.189-3.246h4.476l3.854-3.51l4.572,3.51H22.875z
		 M25.508,14.101H7.483c-0.523,0-0.948,0.447-0.948,0.999v11.735c0,0.551,0.425,0.999,0.948,0.999h18.025
		c0.524,0,0.949-0.447,0.949-0.999V15.1C26.457,14.548,26.032,14.101,25.508,14.101z M24.132,25.337H9.191v-2.141l2.299-5.35
		l3.448,4.28l1.875-2.335l3.641-1.637l3.678,3.169V25.337z"/>
</g>
</svg>
