<?xml version="1.0" standalone="no"?>
<!DOCTYPE svg PUBLIC "-//W3C//DTD SVG 1.1//EN" "http://www.w3.org/Graphics/SVG/1.1/DTD/svg11.dtd">
<svg xmlns="http://www.w3.org/2000/svg">
<metadata>Copyright (C) 2014 by original authors @ fontello.com</metadata>
<defs>
<font id="debiutuikit" horiz-adv-x="1000" >
<font-face font-family="debiutuikit" font-weight="400" font-stretch="normal" units-per-em="1000" ascent="850" descent="-150" />
<missing-glyph horiz-adv-x="1000" />
<glyph glyph-name="54" unicode="&#xe800;" d="m677 176h-353c-16 0-29-13-29-29s13-30 29-30h353c16 0 29 13 29 30s-13 29-29 29m0 176h-353c-16 0-29-13-29-29 0-16 13-29 29-29h353c16 0 29 13 29 29 0 16-13 29-29 29m0 177h-353c-16 0-29-13-29-30 0-16 13-29 29-29h353c16 0 29 13 29 29 0 17-13 30-29 30m29 235v59h-58v-59h-118v59h-59v-59h-117v59h-59v-59c-65 0-118-53-118-118v-646c0-65 53-118 118-118h411c65 0 118 53 118 118v646c0 65-53 118-118 118m59-764c0-33-26-59-59-59h-411c-33 0-59 26-59 59v646c0 33 26 59 59 59h411c33 0 59-26 59-59v-646z" horiz-adv-x="1000" />
<glyph glyph-name="55" unicode="&#xe801;" d="m736 411h-471c-16 0-29-13-29-29 0-16 13-30 29-30h471c16 0 29 14 29 30 0 16-13 29-29 29m0-176h-471c-16 0-29-13-29-30 0-16 13-29 29-29h471c16 0 29 13 29 29 0 17-13 30-29 30m117 588h-705c-65 0-118-58-118-123v-701c0-65 53-117 117-117h701c64 0 123 53 123 118v705c0 65-53 118-118 118m59-823c0-33-32-60-64-60h-701c-32 0-58 27-58 59v701c0 33 27 64 59 64h705c33 0 59-27 59-59v-705z m-176 588h-471c-16 0-29-14-29-30 0-16 13-29 29-29h471c16 0 29 13 29 29 0 16-13 30-29 30" horiz-adv-x="1000" />
<glyph glyph-name="56" unicode="&#xe802;" d="m853 823h-705c-65 0-118-53-118-118v-705c0-65 53-118 118-118h705c65 0 118 53 118 118v705c0 65-53 118-118 118m-705-882c-33 0-59 26-59 59v27l234 209 295-295h-470z m764 59c0-33-26-59-59-59h-152l-216 219 251 251 176-176v-235z m0 319l-176 180-293-297-119 121-235-216v598c0 33 26 59 59 59h705c33 0 59-26 59-59v-386z m-647 386c-65 0-117-52-117-117s52-118 117-118c65 0 118 53 118 118s-53 117-118 117m0-176c-32 0-58 26-58 59 0 32 26 58 58 58 33 0 59-26 59-58 0-33-26-59-59-59" horiz-adv-x="1000" />
<glyph glyph-name="57" unicode="&#xe803;" d="m853 823c0 0-170-47-325-88-19-1-38 0-58 0-147 39-322 88-322 88-65 0-118-53-118-118v-617c0-65 56-98 118-118 0 0 158-44 322-88h60c165 44 323 88 323 88 61 16 118 53 118 118v617c0 65-53 118-118 118m-382-882c-160 43-323 88-323 88-34 9-59 26-59 59v617c0 33 26 59 59 59l323-88v-735z m441 147c0-33-27-49-59-59 0 0-160-45-323-88v735l323 88c33 0 59-26 59-59v-617z" horiz-adv-x="1000" />
<glyph glyph-name="58" unicode="&#xe804;" d="m706 117h-411c-16 0-30-13-30-29 0-16 14-29 30-29h411c17 0 30 13 30 29 0 16-13 29-30 29m88 588h-88v59h-79c-25 35-72 59-126 59s-102-24-127-59h-79v-59h-88c-65 0-118-52-118-117v-588c0-65 53-118 118-118h587c65 0 118 53 118 118v588c0 65-53 117-118 117m-440 0h65c0 33 36 59 82 59 45 0 81-26 81-59h66v-117h-294v117z m499-705c0-33-26-59-59-59h-587c-33 0-59 26-59 59v588c0 32 26 58 59 58h88v-117h411v117h88c33 0 59-26 59-58v-588z m-147 411h-411c-16 0-30-13-30-29 0-16 14-30 30-30h411c17 0 30 14 30 30 0 16-13 29-30 29m0-147h-411c-16 0-30-13-30-29 0-16 14-30 30-30h411c17 0 30 14 30 30 0 16-13 29-30 29" horiz-adv-x="1000" />
<glyph glyph-name="59" unicode="&#xe805;" d="m912 470v-470c0-33-32-60-64-60h-701c-32 0-58 27-58 59v701c0 33 27 64 59 64h470v59h-470c-65 0-118-58-118-123v-701c0-65 53-117 117-117h701c64 0 123 53 123 118v470h-59z m-643-178l-127-256c-10-29 13-55 41-42l256 127c11 2 22 6 30 15l455 455c23 22 23 59 0 82l-104 104c-22 22-59 22-82 0l-454-455c-9-9-13-19-15-30m490 423c11 11 29 11 41 0l62-62c11-12 11-30 0-42l-62-62-102 105 61 61z m-104-104l104-103-331-331c-39 39-92 93-103 104l330 330z m-278-465l-158-96c-15-6-28 8-21 21l96 158 83-83z" horiz-adv-x="1000" />
<glyph glyph-name="60" unicode="&#xe806;" d="m589 822h-177c-35 0-58-22-58-58v-653l117-208c18-27 41-27 59 0l118 208v653c0 35-24 58-59 58m-88-860l-89 155h177l-88-155z m88 214c-61 0-160 0-177 0v382h177v-382z m0 441h-177v117c-1 29 1 31 30 30h117c29-1 30 1 30-30v-117z" horiz-adv-x="1000" />
<glyph glyph-name="61" unicode="&#xe807;" d="m501 617c-82 0-147-66-147-147s65-147 147-147c81 0 147 66 147 147s-66 147-147 147m0-235c-49 0-89 39-89 88s40 88 89 88c48 0 88-39 88-88s-40-88-88-88m0 441c-195 0-353-158-353-353 0-147 294-588 353-588 57 0 352 443 352 588 0 195-158 353-352 353m0-853c-49 0-294 377-294 500 0 162 131 294 294 294s293-132 293-294c0-121-245-500-293-500" horiz-adv-x="1000" />
<glyph glyph-name="62" unicode="&#xe808;" d="m874 463l-87 175c-7 6-15 9-23 8h-175v59c0 65-53 118-118 118h-59c-65 0-117-53-117-118v-59h-118c-32 0-59-26-59-58v-294c0-33 27-59 59-59h118v-235c0-65 52-118 117-118h59c65 0 118 53 118 118v235h176v1c8-1 16 2 22 8l87 175c7 12 8 16 9 22 0 8-3 11-9 22m-520 242c0 33 26 59 58 59h59c33 0 59-26 59-59v-59h-176v59z m176-705c0-33-26-59-59-59h-59c-32 0-58 26-58 59v235h176v-235z m221 299c-4-3-9-5-15-5h-529c-17 0-30 13-30 29v235c0 16 13 30 30 30h529c6 0 11-3 16-6l71-141-72-142z" horiz-adv-x="1000" />
<glyph glyph-name="63" unicode="&#xe809;" d="m530 441c-16 0-29-14-29-30v-176c0-16 13-30 29-30 16 0 29 14 29 30v176c0 16-13 30-29 30m-235 88c-16 0-30-13-30-30v-294c0-16 14-29 30-29 16 0 29 13 29 29v294c0 17-13 30-29 30m441 294l-235-177-236 89-235-147v-706l235 147 236-88 235 176 235-176v705l-235 177z m176-779l-176 132-235-176-236 88-176-110v588l176 110 236-88 235 176 176-132v-588z m-176 279c0-16 13-29 29-29 16 0 29 13 29 29v235c0 16-13 30-29 30-16 0-29-14-29-30v-235z" horiz-adv-x="1000" />
<glyph glyph-name="64" unicode="&#xe80a;" d="m794 676c0 65-53 117-117 117h-352c-65 0-118-52-118-117-201 0-176 0-176-118 0-97 79-176 176-176 7 0 14 1 21 2 39-115 132-219 243-235v-179h-88c-16 0-29-13-29-29s13-30 29-30h235c16 0 29 14 29 30s-13 29-29 29h-88v179c111 16 204 120 243 235 7-1 14-2 21-2 97 0 176 79 176 176 0 118 25 118-176 118m-587-235c-65 0-117 52-117 117s1 59 117 59v-176z m528 58c0-129-105-294-234-294-130 0-235 165-235 294v177c0 29 30 59 59 59h352c28 0 58-29 58-59v-177z m59-58v176c116 0 117 6 117-59s-52-117-117-117" horiz-adv-x="1000" />
<glyph glyph-name="65" unicode="&#xe80b;" d="m501 676c-114 0-206-92-206-206s92-206 206-206c113 0 205 92 205 206s-92 206-205 206m0-353c-82 0-147 66-147 147 0 81 65 147 147 147s147-66 147-147c0-81-66-147-147-147m324-13c23 48 37 101 37 157 0 196-162 356-361 356-200 0-362-160-362-356 0-56 14-109 38-157l-147-250c0 0 93-19 187-38 63-70 126-140 126-140l135 230c7 0 15-1 23-1s15 1 23 1l134-230c0 0 63 70 126 140 94 19 187 38 187 38l-146 250z m-489-321c0 0-45 43-88 84-60 17-121 34-121 34l85 146c50-64 120-111 202-131l-78-133z m165 187c-163 0-294 132-294 294s131 294 294 294c162 0 293-131 293-294s-131-294-293-294m252-103c-43-41-88-84-88-84l-78 133c82 20 152 67 202 131l85-146c0 0-61-17-121-34" horiz-adv-x="1000" />
<glyph glyph-name="66" unicode="&#xe80c;" d="m501 823c-144-146-383-348-383-559s171-382 383-382 382 171 382 382-233 410-382 559m0-882c-179 0-324 144-324 322s202 349 324 472c126-126 323-294 323-472s-145-322-323-322m0 588c-78-77-206-185-206-297s92-203 206-203c113 0 205 91 205 203s-125 218-205 297m0-441c-81 0-147 69-147 155s91 153 146 212c57-60 147-126 147-212s-65-155-146-155" horiz-adv-x="1000" />
<glyph glyph-name="67" unicode="&#xe80d;" d="m792 618c-129-36-153-141-144-207-92 108-89 233-89 412-295-111-226-432-235-529-74 60-88 205-88 205-78-40-118-147-118-235 0-211 172-382 383-382s382 171 382 382c0 126-92 184-91 354m-277-677c-186 0-338 157-338 334 0 41 1 75 30 107-4-19 41-178 185-170-6 121-39 418 113 520-13-161 26-377 202-409-10 65-9 172 37 192 4-99 78-160 78-255 0-173-167-319-307-319" horiz-adv-x="1000" />
<glyph glyph-name="68" unicode="&#xe80e;" d="m530 617v59h59c16 0 29 13 29 29 0 16-13 30-29 30h-177c-16 0-29-14-29-30 0-16 13-29 29-29h59c0 0 0-61 0-59-246-15-441-220-441-470v-30c0-16 13-29 30-29h881c17 0 30 13 30 29v30c0 250-195 455-441 470m-441-470c0 227 184 411 412 411s411-184 411-411h-823z m852-118h-881c-17 0-30-13-30-29 0-17 13-30 30-30h881c17 0 30 13 30 30 0 16-13 29-30 29" horiz-adv-x="1000" />
<glyph glyph-name="69" unicode="&#xe80f;" d="m887 712c6 6 11 14 11 23 0 12-8 23-19 27-4 2-9 2-13 2h-731c-8 0-17-2-23-8-11-12-11-31 0-42l374-450v-264h-118c-16 0-29-14-29-30 0-16 13-29 29-29h294c17 0 30 13 30 29 0 16-13 30-30 30h-117v264l342 448z m-372-389l-320 382h614l-294-382z" horiz-adv-x="1000" />
<glyph glyph-name="70" unicode="&#xe810;" d="m589 470h0v323c0 17-13 30-30 30h-117c-16 0-30-13-30-30v-323h0c-59 0-88-53-88-118v-470h353v470c0 65-30 118-88 118m-118 294h59v-59h-59v59z m0-118h59v-176h-59v176z m147-705h-235v411c0 33 26 59 59 59h117c33 0 59-26 59-59v-411z" horiz-adv-x="1000" />
<glyph glyph-name="71" unicode="&#xe811;" d="m559 59c-16 0-29-14-29-30 0-16 13-29 29-29s30 13 30 29c0 16-13 30-30 30m206 764h-529c-65 0-118-53-118-118v-705c0-65 53-118 118-118h529c65 0 118 53 118 118v705c0 65-53 118-118 118m59-823c0-33-26-59-59-59h-529c-32 0-59 26-59 59v705c0 33 27 59 59 59h529c33 0 59-26 59-59v-705z m-441 117h-29v30c0 16-14 29-30 29s-29-13-29-29v-30h-30c-16 0-29-13-29-29s13-29 29-29h30v-30c0-16 13-29 29-29s30 13 30 29v30h29c16 0 29 13 29 29s-13 29-29 29m206 59c-17 0-30-13-30-29 0-17 13-30 30-30s29 13 29 30c0 16-13 29-29 29m117 529h-411c-33 0-59-26-59-59v-352c0-33 26-59 59-59h411c33 0 59 26 59 59v352c0 33-26 59-59 59m0-382c0-16-13-29-29-29h-353c-16 0-29 13-29 29v294c0 16 13 29 29 29h353c16 0 29-13 29-29v-294z m30-147c-17 0-30-13-30-29 0-17 13-30 30-30s29 13 29 30c0 16-13 29-29 29m-30-117c-16 0-29-14-29-30 0-16 13-29 29-29s30 13 30 29c0 16-13 30-30 30" horiz-adv-x="1000" />
<glyph glyph-name="72" unicode="&#xe812;" d="m853 646h-88l-29 59c-18 34-27 59-59 59h-353c-32 0-43-28-59-59l-29-59h-88c-65 0-118-52-118-117v-470c0-66 53-118 118-118h705c65 0 118 52 118 118v470c0 65-53 117-118 117m59-587c0-33-26-59-59-59h-705c-33 0-59 26-59 59v470c0 32 26 59 59 59h117l30 58c21 35 26 59 59 59h294c32 0 38-24 58-59l30-58h117c33 0 59-27 59-59v-470z m-411 470c-130 0-236-105-236-235s106-235 236-235c129 0 235 105 235 235s-106 235-235 235m0-412c-98 0-177 79-177 177 0 97 79 176 177 176 97 0 176-79 176-176 0-98-79-177-176-177" horiz-adv-x="1000" />
<glyph glyph-name="73" unicode="&#xe813;" d="m177 382c-16 0-29-13-29-30 0-16 13-29 29-29 16 0 30 13 30 29 0 17-14 30-30 30m676 294h-705c-65 0-118-53-118-118v-411c0-65 53-118 118-118h705c65 0 118 53 118 118v411c0 65-53 118-118 118m59-529c0-33-26-59-59-59h-705c-33 0-59 26-59 59v411c0 33 26 59 59 59h705c33 0 59-26 59-59v-411z m-735 117c-16 0-29-13-29-29 0-16 13-30 29-30 16 0 30 14 30 30 0 16-14 29-30 29m647 118c-16 0-30-13-30-30 0-16 14-29 30-29s29 13 29 29c0 17-13 30-29 30m-118 176h-411c-16 0-30-13-30-29v-353c0-16 14-29 30-29h411c17 0 30 13 30 29v353c0 16-13 29-30 29m-29-323c0-16-13-30-29-30h-294c-17 0-30 14-30 30v235c0 16 13 29 30 29h294c16 0 29-13 29-29v-235z m147 29c-16 0-30-13-30-29 0-16 14-30 30-30s29 14 29 30c0 16-13 29-29 29" horiz-adv-x="1000" />
<glyph glyph-name="74" unicode="&#xe814;" d="m501 0c32 0 58 26 58 59 0 32-26 58-58 58-33 0-59-26-59-58 0-33 26-59 59-59m147 823h-294c-65 0-118-53-118-118v-705c0-65 53-118 118-118h294c64 0 117 53 117 118v705c0 65-53 118-117 118m58-823c0-33-26-59-58-59h-294c-33 0-59 26-59 59v176h411v-176z m0 235h-411v382h411v-382z m0 441h-411v29c0 33 26 59 59 59h294c32 0 58-26 58-59v-29z" horiz-adv-x="1000" />
<glyph glyph-name="75" unicode="&#xe815;" d="m603 411c-24 0-44-20-44-44s20-44 44-44 45 20 45 44-20 44-45 44m89-117c-25 0-44-20-44-44s19-45 44-45 44 20 44 45-20 44-44 44m-280 88h-88v88c0 16-13 29-29 29s-30-13-30-29v-88h-88c-16 0-29-13-29-30 0-16 13-29 29-29h88v-88c0-16 14-30 30-30s29 14 29 30v88h88c17 0 30 13 30 29 0 17-13 30-30 30m382 235h-587c-98 0-177-79-177-176v-177c0-97 79-176 177-176h587c98 0 177 79 177 176v177c0 97-79 176-177 176m118-353c0-65-53-117-118-117h-587c-65 0-118 52-118 117v177c0 65 53 117 118 117h587c65 0 118-52 118-117v-177z m-103 118c-24 0-44-20-44-44s20-44 44-44 44 19 44 44-19 44-44 44m-88 117c-24 0-44-19-44-44s20-44 44-44 44 20 44 44-20 44-44 44" horiz-adv-x="1000" />
<glyph glyph-name="76" unicode="&#xe816;" d="m501-30c24 0 44 20 44 44s-20 45-44 45-45-20-45-45 20-44 45-44m220 853h-441c-65 0-117-53-117-118v-705c0-65 52-118 117-118h441c65 0 118 53 118 118v705c0 65-53 118-118 118m59-823c0-33-27-59-59-59h-441c-32 0-59 26-59 59v88h559v-88z m0 147h-559v470h559v-470z m0 529h-559v29c0 33 27 59 59 59h441c32 0 59-26 59-59v-29z" horiz-adv-x="1000" />
<glyph glyph-name="77" unicode="&#xe817;" d="m839 823h-676c-65 0-118-53-118-118v-529c0-65 53-117 118-117h235v-118h-59c-16 0-30-13-30-30 0-16 14-29 30-29h353c16 0 29 13 29 29 0 17-13 30-29 30h-59v118h206c65 0 117 52 117 117v529c0 65-52 118-117 118m-265-882h-118v118h118v-118z m323 235c0-32-26-59-58-59h-676c-33 0-59 27-59 59v59h793v-59z m0 118h-793v411c0 33 26 59 59 59h676c32 0 58-26 58-59v-411z" horiz-adv-x="1000" />
<glyph glyph-name="78" unicode="&#xe818;" d="m618 823c-16 0-29-13-29-30v-205c0-42-25-70-59-83v288c0 17-13 30-29 30-17 0-30-13-30-30v-288c-34 13-59 41-59 83v205c0 17-13 30-29 30-16 0-29-13-29-30v-205c0-71 50-131 117-144v-533c0-16 13-29 30-29 16 0 29 13 29 29v533c67 13 118 73 118 144v205c0 17-14 30-30 30" horiz-adv-x="1000" />
<glyph glyph-name="79" unicode="&#xe819;" d="m706 588c0 129-92 235-205 235-114 0-206-106-206-235 0-119 77-217 177-233 0-1-1-2-1-3v-441c0-16 13-29 30-29 16 0 29 13 29 29v441c0 1-1 2-1 3 100 16 177 114 177 233m-205-177c-82 0-147 79-147 177 0 97 65 176 147 176 81 0 147-79 147-176 0-98-66-177-147-177" horiz-adv-x="1000" />
<glyph glyph-name="80" unicode="&#xe81a;" d="m442 823h-30c-16 0-29-13-29-30v-882c0-16 13-29 29-29 17 0 30 13 30 29v383h176c0 346-176 529-176 529m0-88c0 0 112-197 117-383h-117v383z" horiz-adv-x="1000" />
<glyph glyph-name="81" unicode="&#xe81b;" d="m677 705h-147v118h-118c-16 0-29-13-29-30 0-16 13-29 29-29h59v-59h-147c-65 0-117-52-117-117v-588c0-65 52-118 117-118h353c65 0 117 53 117 118v588c0 65-52 117-117 117m59-705c0-33-27-59-59-59h-353c-32 0-59 26-59 59v588c0 32 27 58 59 58h353c32 0 59-26 59-58v-588z m-235 588c-17 0-30-14-30-30v-117c0-17 13-30 30-30 16 0 29 13 29 30v117c0 16-13 30-29 30" horiz-adv-x="1000" />
<glyph glyph-name="82" unicode="&#xe81c;" d="m589 529c16 0 29 13 29 29v118c0 16-13 29-29 29-17 0-30-13-30-29v-118c0-16 14-29 30-29m264 294h-705c-65 0-118-53-118-118v-705c0-65 53-118 118-118h705c65 0 118 53 118 118v705c0 65-53 118-118 118m-588-59h471v-265c0-16-13-29-30-29h-411c-16 0-30 13-30 29v265z m647-764c0-33-26-59-59-59h-705c-33 0-59 26-59 59v705c0 33 26 59 59 59h59v-294c0-32 26-59 58-59h471c32 0 58 27 58 59v294h59c33 0 59-26 59-59v-705z" horiz-adv-x="1000" />
<glyph glyph-name="83" unicode="&#xe81d;" d="m912 411l-176-117c0 35-17 67-42 88 60 37 100 101 100 176 0 114-92 206-205 206-114 0-206-92-206-206 0-57 24-109 62-147h-108c28 31 46 72 46 118 0 97-79 176-176 176-98 0-177-79-177-176 0-53 24-100 61-133-36-20-61-58-61-102v-235c0-66 53-118 118-118h470c65 0 118 52 118 118v29l176-147c33 0 59 26 59 59v352c0 33-26 59-59 59m-823 118c0 65 53 117 118 117 65 0 117-52 117-117s-52-118-117-118c-65 0-118 53-118 118m588-470c0-33-26-59-59-59h-470c-33 0-59 26-59 59v235c0 32 26 58 59 58h470c33 0 59-26 59-58v-235z m-88 352c-82 0-148 66-148 147s66 148 148 148 147-66 147-148-66-147-147-147m323-411l-176 147v88l176 117v-352z" horiz-adv-x="1000" />
<glyph glyph-name="84" unicode="&#xe81e;" d="m736 793h-471c-65 0-117-52-117-117v-765h117 471 117v765c0 65-52 117-117 117m-471-823h-58v59h58v-59z m0 118h-58v59h58v-59z m0 117h-58v59h58v-59z m0 118h-58v59h58v-59z m0 118h-58v58h58v-58z m0 117h-58v59h58v-59z m412-558c0-17-13-30-29-30h-294c-17 0-30 13-30 30v294c0 16 13 29 30 29h294c16 0 29-13 29-29v-294z m0 411c0-16-13-29-29-29h-294c-17 0-30 13-30 29v294c0 16 13 30 30 30h294c16 0 29-14 29-30v-294z m117-441h-58v59h58v-59z m0 118h-58v59h58v-59z m0 117h-58v59h58v-59z m0 118h-58v59h58v-59z m0 118h-58v58h58v-58z m0 117h-58v59h58v-59z" horiz-adv-x="1000" />
<glyph glyph-name="85" unicode="&#xe81f;" d="m354 176h-177c-16 0-29-13-29-29s13-30 29-30h177c16 0 29 13 29 30s-13 29-29 29m294 264c-98 0-177-78-177-176 0-97 79-176 177-176 97 0 176 79 176 176 0 98-79 176-176 176m0-293c-65 0-118 52-118 117s53 118 118 118 117-53 117-118-53-117-117-117m-294 147h-177c-16 0-29-14-29-30 0-16 13-29 29-29h177c16 0 29 13 29 29 0 16-13 30-29 30m0 117h-177c-16 0-29-13-29-29 0-17 13-30 29-30h177c16 0 29 13 29 30 0 16-13 29-29 29m499 176h-61l-310 173c-14 8-32 3-40-10-8-14-4-31 11-39l223-124h-528c-65 0-118-52-118-117v-412c0-65 53-117 118-117h705c65 0 118 52 118 117v412c0 65-53 117-118 117m59-529c0-32-26-59-59-59h-705c-33 0-59 27-59 59v412c0 32 26 59 59 59h705c33 0 59-27 59-59v-412z" horiz-adv-x="1000" />
<glyph glyph-name="86" unicode="&#xe820;" d="m824 59h-118c-16 0-29-13-29-30 0-16 13-29 29-29h118c16 0 29 13 29 29 0 17-13 30-29 30m-265 411h-352c-33 0-59-26-59-59v-352c0-33 26-59 59-59h352c33 0 59 26 59 59v352c0 33-26 59-59 59m0-382c0-16-13-29-29-29h-294c-16 0-29 13-29 29v294c0 16 13 29 29 29h294c16 0 29-13 29-29v-294z m206 382c-49 0-88-39-88-88s39-88 88-88c49 0 88 39 88 88s-39 88-88 88m29-117h-58v58h58v-58z m30-206h-118c-16 0-29-13-29-30 0-16 13-29 29-29h118c16 0 29 13 29 29 0 17-13 30-29 30m29 441h-272l258 177c14 10 18 29 9 43-9 15-27 19-41 10 0 0-282-195-306-210l-307 210c-14 9-32 5-41-10-9-14-5-33 9-43l258-177h-272c-65 0-118-53-118-118v-470c0-65 53-118 118-118h705c65 0 118 53 118 118v470c0 65-53 118-118 118m59-588c0-33-26-59-59-59h-705c-33 0-59 26-59 59v470c0 33 26 59 59 59h705c33 0 59-26 59-59v-470z" horiz-adv-x="1000" />
<glyph glyph-name="11" unicode="&#xe821;" d="m147 174c-32 0-58-27-58-59s26-59 58-59 59 26 59 59-26 59-59 59m206 382h529c16 0 30 13 30 29 0 16-14 30-30 30h-529c-16 0-29-14-29-30 0-16 13-29 29-29m-206-147c-32 0-58-26-58-59 0-32 26-59 58-59s59 27 59 59c0 33-26 59-59 59m0 235c-32 0-58-26-58-59s26-59 58-59 59 27 59 59-26 59-59 59m735-265h-529c-16 0-29-13-29-29s13-29 29-29h529c16 0 30 13 30 29s-14 29-30 29m0-235h-529c-16 0-29-13-29-29s13-30 29-30h529c16 0 30 14 30 30s-14 29-30 29" horiz-adv-x="1000" />
<glyph glyph-name="88" unicode="&#xe822;" d="m177 646c16 0 30 14 30 30s-14 29-30 29c-16 0-29-13-29-29s13-30 29-30m0-587c-16 0-29-14-29-30s13-29 29-29c16 0 30 13 30 29s-14 30-30 30m647 0c-16 0-30-14-30-30s14-29 30-29 29 13 29 29-13 30-29 30m0 646c-16 0-30-13-30-29s14-30 30-30 29 14 29 30-13 29-29 29m29 118h-705c-65 0-118-53-118-118v-705c0-65 53-118 118-118h705c65 0 118 53 118 118v705c0 65-53 118-118 118m59-823c0-33-26-59-59-59h-705c-33 0-59 26-59 59v705c0 33 26 59 59 59h705c33 0 59-26 59-59v-705z m-411 705c-195 0-353-158-353-353 0-194 158-352 353-352s352 158 352 352c0 195-158 353-352 353m0-646c-163 0-294 131-294 293 0 163 131 294 294 294 162 0 293-131 293-294 0-162-131-293-293-293m0 470c-98 0-177-79-177-177 0-97 79-176 177-176 97 0 176 79 176 176 0 98-79 177-176 177m0-294c-65 0-118 53-118 117s53 118 118 118 117-53 117-118-53-117-117-117" horiz-adv-x="1000" />
<glyph glyph-name="89" unicode="&#xe823;" d="m910 396c1 10 2 20 2 30 0 219-184 397-411 397s-412-178-412-397c0-10 1-20 2-30-36-20-61-58-61-102v-177c0-65 53-117 118-117 0 0 118-1 117 0 63 3 118 54 118 117v177c0 65-53 117-118 117h-117c0 196 158 353 353 353 194 0 352-143 352-353h-117c-65 0-118-52-118-117v-177c0-63 55-114 118-117 0-1 58 0 58 0v-89c0-16 14-29 30-29s29 13 29 29v89c65 0 118 52 118 117v177c0 44-25 82-61 102m-682-44h37c33 0 59-26 59-58v-177c0-32-26-58-59-58h-25c-21 48-33 102-33 161 0 47 8 92 21 132m-62 0c-11-41-18-85-18-132 0-58 10-113 28-161h-28c-33 0-59 26-59 58v177c0 32 26 58 59 58h18z m595-293h-25c-33 0-59 26-59 58v177c0 32 26 58 59 58h37c13-40 21-85 21-132 0-59-12-113-33-161m151 58c0-32-26-58-59-58h-27c17 48 27 103 27 161 0 47-7 91-18 132h18c33 0 59-26 59-58v-177z" horiz-adv-x="1000" />
<glyph glyph-name="90" unicode="&#xe824;" d="m788 612c-27 120-146 211-287 211-142 0-261-91-288-211-21-9-36-30-36-54v-59c0-32 27-58 59-58h2c20-38 50-70 87-95l58-405c0-33 26-59 59-59h117c33 0 59 26 59 59l58 405c37 25 67 57 88 95h1c33 0 59 26 59 58v59c0 24-15 45-36 54m-287 152c106 0 196-62 225-147h-451c29 85 119 147 226 147m58-764c-6-31-7-59-29-59h-59c-21 0-21 29-29 59l-56 315c35-14 74-21 115-21s79 7 114 21l-56-315z m-58 352c-80 0-151 35-193 89h385c-42-54-113-89-192-89m235 147h-471c-16 0-29 14-29 30 0 16 13 29 29 29h471c16 0 29-13 29-29 0-16-13-30-29-30" horiz-adv-x="1000" />
<glyph glyph-name="91" unicode="&#xe825;" d="m706 147c0 113-92 205-205 205-114 0-206-92-206-205s92-206 206-206c113 0 205 92 205 206m-205-147c-82 0-147 66-147 147s65 147 147 147c81 0 147-66 147-147s-66-147-147-147m0 705c-82 0-147-66-147-147s65-147 147-147c81 0 147 66 147 147s-66 147-147 147m0-235c-49 0-89 39-89 88s40 89 89 89c48 0 88-40 88-89s-40-88-88-88m235 353h-471c-65 0-117-53-117-118v-705c0-65 52-118 117-118h471c65 0 117 53 117 118v705c0 65-52 118-117 118m58-823c0-33-26-59-58-59h-235-236c-32 0-58 26-58 59v705c0 33 26 59 58 59h471c32 0 58-26 58-59v-705z" horiz-adv-x="1000" />
<glyph glyph-name="92" unicode="&#xe826;" d="m677 705l-265-176h-88c-32 0-59-27-59-59v-235c0-33 27-59 59-59h88l265-176c32 0 59 26 59 59v587c0 33-27 59-59 59m-265-441c0-16-13-29-29-29h-29c-17 0-30 13-30 29v177c0 16 13 29 30 29h29c16 0 29-13 29-29v-177z m265-205l-206 128v331l206 128v-587z" horiz-adv-x="1000" />
<glyph glyph-name="93" unicode="&#xe827;" d="m545 705l-265-176h-88c-33 0-59-27-59-59v-235c0-33 26-59 59-59h88l265-176c32 0 58 26 58 59v587c0 33-26 59-58 59m-265-441c0-16-13-29-29-29h-30c-16 0-29 13-29 29v177c0 16 13 29 29 29h30c16 0 29-13 29-29v-177z m265-205l-206 128v331l206 128v-587z m147 496v-59c67-13 117-72 117-144s-50-130-117-144v-58c99 14 176 99 176 202s-77 189-176 203" horiz-adv-x="1000" />
<glyph glyph-name="94" unicode="&#xe828;" d="m780 352c0 104-77 189-177 203v-59c67-13 118-72 118-144 0-71-51-130-118-144v-58c100 14 177 99 177 202m-324 353l-264-176h-88c-33 0-59-26-59-59v-235c0-33 26-59 59-59h88l264-176c33 0 59 26 59 59v587c0 33-26 59-59 59m-264-441c0-16-13-29-29-29h-30c-16 0-29 13-29 29v177c0 16 13 29 29 29h30c16 0 29-13 29-29v-177z m264-205l-205 128v331l205 128v-587z m147 705v-61c173-33 294-174 294-351 0-175-117-311-294-350v-61c200 29 353 201 353 411 0 210-153 382-353 412" horiz-adv-x="1000" />
<glyph glyph-name="95" unicode="&#xe829;" d="m471 705l-264-176h-88c-33 0-59-27-59-59v-235c0-33 26-59 59-59h88l264-176c33 0 59 26 59 59v587c0 33-26 59-59 59m-264-441c0-16-13-29-30-29h-29c-16 0-29 13-29 29v177c0 16 13 29 29 29h29c17 0 30-13 30-29v-177z m264-205l-205 128v331l205 128v-587z m337 293l122 123c14 13 15 34 3 45-12 12-32 11-45-2l-123-123-122 123c-14 13-34 14-46 2-11-11-10-32 3-45l123-123-123-122c-13-13-14-34-3-45s32-11 46 2l122 123 123-123c13-13 33-14 45-2 12 11 11 32-3 45l-122 122z" horiz-adv-x="1000" />
<glyph glyph-name="96" unicode="&#xe82a;" d="m236 408v327c0 16-13 29-29 29-17 0-30-13-30-29v-327c-67-13-117-73-117-144s50-130 117-144v-150c0-16 13-29 30-29 16 0 29 13 29 29v150c67 14 118 73 118 144s-51 131-118 144m-29-232c-49 0-89 40-89 88 0 49 40 88 89 88 48 0 88-39 88-88 0-48-40-88-88-88m617 115v444c0 16-13 29-30 29s-29-13-29-29v-444c-67-14-117-73-117-144s50-131 117-144v-33c0-16 13-29 29-29s30 13 30 29v33c67 13 117 73 117 144s-50 130-117 144m-30-232c-48 0-88 39-88 88 0 48 40 88 88 88 49 0 89-40 89-88 0-49-40-88-89-88m-264 643v33c0 16-13 29-29 29s-30-13-30-29v-33c-67-13-117-73-117-144s50-130 117-144v-444c0-16 13-29 30-29s29 13 29 29v444c67 14 118 73 118 144s-51 131-118 144m-29-232c-49 0-89 40-89 88 0 49 40 88 89 88 48 0 88-39 88-88 0-48-40-88-88-88" horiz-adv-x="1000" />
<glyph glyph-name="97" unicode="&#xe82b;" d="m853 764h-705c-33 0-59-26-59-59v-705c0-33 26-59 59-59h705c33 0 59 26 59 59v705c0 33-26 59-59 59m0-735c0-16-13-29-29-29h-647c-16 0-29 13-29 29v647c0 16 13 29 29 29h647c16 0 29-13 29-29v-647z" horiz-adv-x="1000" />
<glyph glyph-name="98" unicode="&#xe82c;" d="m736 764h-118c-32 0-59-26-59-59v-705c0-33 27-59 59-59h118c32 0 58 26 58 59v705c0 33-26 59-58 59m0-735c0-16-13-29-30-29h-58c-17 0-30 13-30 29v647c0 16 13 29 30 29h58c17 0 30-13 30-29v-647z m-353 735h-118c-32 0-58-26-58-59v-705c0-33 26-59 58-59h118c32 0 59 26 59 59v705c0 33-27 59-59 59m0-735c0-16-13-29-29-29h-59c-16 0-30 13-30 29v647c0 16 14 29 30 29h59c16 0 29-13 29-29v-647z" horiz-adv-x="1000" />
<glyph glyph-name="99" unicode="&#xe82d;" d="m954 394l-499 358c-33 18-71 22-71-46v-156l-282 202c-33 18-72 18-71-48v-704c1-60 41-69 71-49l282 202v-154c0-58 41-68 71-48l499 358c21 15 22 70 0 85m-511-372v247l-353-247v659l353-247v247l471-329-471-330z" horiz-adv-x="1000" />
<glyph glyph-name="100" unicode="&#xe82e;" d="m800 395l-553 361c-32 18-70 10-70-48v-710c0-58 40-68 70-48l553 360c32 23 31 65 0 85m-565-373v662l525-331-525-331z" horiz-adv-x="1000" />
<glyph glyph-name="101" unicode="&#xe82f;" d="m971 793c-4 0-8-1-12-3l-488-114c-16 0-29-13-29-30v-411c-62 40-161 40-250-7-111-60-163-170-114-248 48-77 178-91 290-32 72 38 121 111 133 169v507l441 104v-376c-62 41-161 40-250-7-112-59-163-170-115-247 49-77 184-95 296-37 84 44 121 112 127 174v529c0 16-13 29-29 29m-617-793c-85-47-182-47-223 3-41 51-5 130 80 175 85 46 160 44 211 7 55-41 4-146-68-185m504 112c-84-47-187-40-228 10-40 51-4 129 82 174 85 45 163 47 209 5 51-44 8-150-63-189" horiz-adv-x="1000" />
<glyph glyph-name="102" unicode="&#xe830;" d="m900 752l-282-202v156c0 68-38 64-71 46l-500-358c-23-23-23-61 0-85l500-358c30-20 71-10 71 48v154l282-202c30-20 70-11 71 49v704c1 66-38 66-71 48m12-730l-353 247v-247l-471 330 471 329v-247l353 247v-659z" horiz-adv-x="1000" />
<glyph glyph-name="103" unicode="&#xe831;" d="m882-1h-764c-16 0-29-13-29-30s13-29 29-29h764c16 0 30 13 30 29s-14 30-30 30m-734 59h705c70 0 67 41 48 71l-359 559c-16 23-65 25-84 0l-359-559c-17-33-20-71 49-71m352 567l329-508h-658l329 508z" horiz-adv-x="1000" />
<glyph glyph-name="211" unicode="&#xe832;" d="m456 41c-16 0-29-13-29-29s13-29 29-29h441c16 0 29 13 29 29s-13 29-29 29h-441m441 647c16 0 29 13 29 29 0 17-13 30-29 30h-764c-17 0-30-13-30-30 0-16 13-29 30-29h764m-764-411c-17 0-30-14-30-30 0-16 13-29 30-29h764c16 0 29 13 29 29 0 16-13 30-29 30h-764m0 235c-17 0-30-13-30-30 0-16 13-29 30-29h764c16 0 29 13 29 29 0 17-13 30-29 30h-764" horiz-adv-x="1000" />
<glyph glyph-name="105" unicode="&#xe833;" d="m483 352c1 9-2 17-8 24l-262 261c-12 12-31 12-42 0-12-11-12-30 0-41l243-244-243-243c-12-11-12-30 0-41 11-12 30-12 42 0l262 261c6 7 9 15 8 23m348 24l-322 321c-12 11-30 11-42 0-11-12-11-31 0-42l303-303-303-302c-11-11-11-30 0-42 12-11 31-11 42 0l322 321c6 7 9 15 8 23 1 9-2 17-8 24" horiz-adv-x="1000" />
<glyph glyph-name="106" unicode="&#xe834;" d="m133 543h118l103-141 37 48c0 0-103 142-111 152h-147c-16 0-29-16-29-32s13-27 29-27m633-299c-9 9-36 6-45-2v-81h-117l-104 142-37-48 111-150h147v-85c9-9 36-5 45 4l125 94c8 9 8 23 0 32l-125 94z m-45 299v-79c9-9 36-12 45-4l125 94c8 9 8 23 0 32l-125 94c-9 9-36 14-45 5v-83h-147l-323-441h-118c-16 0-29-11-29-27 0-16 13-32 29-32h147l323 441h118z" horiz-adv-x="1000" />
<glyph glyph-name="107" unicode="&#xe835;" d="m232 352l302 303c11 11 11 30 0 42-12 11-30 11-42 0l-321-321c-6-7-9-15-8-24-1-8 2-16 8-23l321-321c12-11 30-11 42 0 11 12 11 31 0 42l-302 302z m355 0l243 244c11 11 11 30 0 41-12 12-30 12-42 0l-262-261c-6-7-9-15-8-24-1-8 2-16 8-23l262-261c12-12 30-12 42 0 11 11 11 30 0 41l-243 243z" horiz-adv-x="1000" />
<glyph glyph-name="108" unicode="&#xe836;" d="m852 612l-196 195c-11 12-29 11-41 0-9-8-7-22-7-38v-509c-65 48-173 48-268-7-118-68-173-196-122-285 52-88 189-105 308-37 92 54 146 142 141 221v559l144-141c11-11 30-11 41 0 12 12 12 30 0 42m-344-632c-87-54-193-51-235 11-42 63-4 161 83 215 86 54 196 48 238-14 42-62 1-157-86-212" horiz-adv-x="1000" />
<glyph glyph-name="109" unicode="&#xe837;" d="m133 543h118l103-141 37 48c0 0-103 142-111 152h-147c-16 0-29-16-29-32s13-27 29-27m633-299c-9 9-36 6-45-2v-81h-117l-104 142-37-48 111-150h147v-85c9-9 36-5 45 4l125 94c8 9 8 23 0 32l-125 94z m-45 299v-79c9-9 36-12 45-4l125 94c8 9 8 23 0 32l-125 94c-9 9-36 14-45 5v-83h-147l-323-441h-118c-16 0-29-11-29-27 0-16 13-32 29-32h147l323 441h118z" horiz-adv-x="1000" />
<glyph glyph-name="110" unicode="&#xe838;" d="m500 29c-148 0-272 100-311 235h96c9 9 14 21 5 30l-111 111c-9 9-24 9-33 0l-109-111c-13-15-5-21 4-30h88c40-168 191-294 371-294 138 0 258 73 326 182l-56 22c-58-87-157-145-270-145m462 382h-84c-28 183-186 324-378 324-147 0-275-84-339-206l55-22c55 101 162 169 284 169 159 0 291-114 318-265h-100c-9-9-18-14-5-29l110-112c9-9 24-9 33 0l110 112c9 8 5 20-4 29" horiz-adv-x="1000" />
<glyph glyph-name="111" unicode="&#xe839;" d="m735 794c-28 0-29-30-29-30v-481c-66 49-174 49-271-6-119-69-170-197-122-286 49-91 190-106 310-37 93 53 142 140 142 222v588c-1 16-14 30-30 30m-131-791c-87-54-194-51-236 11-43 62-4 161 83 215 87 54 198 49 240-14 42-67-8-164-87-212" horiz-adv-x="1000" />
<glyph glyph-name="112" unicode="&#xe83a;" d="m883-59h-765c-16 0-29-13-29-30s13-29 29-29h765c16 0 29 13 29 29s-13 30-29 30m-59 764l-382-59c-16 0-30-13-30-29v-249c-45 21-109 18-167-14-82-44-120-127-84-185 35-58 140-67 222-22 64 34 92 95 88 147 0 1 0 298 0 298l323 50v-215c-45 21-109 18-167-14-82-45-119-128-84-185 36-58 140-67 222-23 64 35 92 96 88 147 1 2 0 324 0 324 0 16-13 29-29 29m-467-512c-51-29-115-24-140 6-24 31-2 78 50 105 52 27 99 27 129 3 37-29 6-88-39-114m382 59c-51-29-114-25-139 6-25 30-3 77 49 104s98 26 129 4c40-28 8-87-39-114m114 571h-705c-65 0-118-53-118-118v-588c0-65 53-117 118-117h705c65 0 118 52 118 117v588c0 65-53 118-118 118m59-706c0-32-26-58-59-58h-705c-33 0-59 26-59 58v588c0 33 26 59 59 59h705c33 0 59-26 59-59v-588z" horiz-adv-x="1000" />
<glyph glyph-name="113" unicode="&#xe83b;" d="m148 705h529c16 0 29 13 29 29 0 17-13 30-29 30h-529c-16 0-30-13-30-30 0-16 14-29 30-29m0-176h529c16 0 29 13 29 29 0 16-13 29-29 29h-529c-16 0-30-13-30-29 0-16 14-29 30-29m0-177h323c16 0 30 13 30 30 0 16-14 29-30 29h-323c-16 0-30-13-30-29 0-17 14-30 30-30m705 441c-16 0-29-13-29-29v-481c-65 48-173 49-268-6-119-68-171-195-122-285 51-93 189-105 307-37 92 53 145 140 141 218 0 1 1 2 1 3v588c0 16-13 29-30 29m-131-790c-88-53-196-51-237 12-42 63 0 163 88 216s200 51 241-12c41-63-5-163-92-216m-398 232h-176c-16 0-30-13-30-30 0-16 14-29 30-29h176c16 0 30 13 30 29 0 17-14 30-30 30" horiz-adv-x="1000" />
<glyph glyph-name="114" unicode="&#xe83c;" d="m501 823c-260 0-471-211-471-471s211-470 471-470 470 211 470 470-211 471-470 471m340-240c40-58 65-127 70-201h-235c-2 54-6 108-15 159 64 9 124 23 180 42m-40 50c-48-15-99-26-152-34-12 54-28 105-48 152 78-20 147-61 200-118m-417-251c2 52 7 103 15 151 34-2 67-4 102-4s68 2 101 4c8-48 13-99 15-151h-233z m233-59c-2-52-7-103-15-151-33 2-67 4-101 4s-68-2-102-4c-8 48-13 99-15 151h233z m-145 440c10 0 19 1 29 1s19-1 28-1c25-53 45-111 60-172-29-3-58-4-88-4s-60 1-89 4c15 61 35 119 60 172m-72-12c-20-47-36-98-48-152-53 8-104 19-152 34 53 57 122 98 200 118m-240-168c56-19 117-33 180-42-8-51-13-105-15-159h-235c5 74 30 143 70 201m0-461c-40 58-65 127-70 201h235c2-55 7-108 15-159-63-9-124-23-180-42m40-50c48 15 99 26 152 34 12-54 28-105 48-152-78 19-147 61-200 118m329-130c-9 0-19-1-28-1s-19 1-29 1c-25 52-45 110-60 172 29 3 59 4 89 4s59-1 88-4c-15-62-35-120-60-172m72 12c20 47 36 98 48 152 53-8 104-19 152-34-53-57-122-99-200-118m240 168c-56 19-116 33-180 42 9 51 13 104 15 159h235c-5-74-30-143-70-201" horiz-adv-x="1000" />
<glyph glyph-name="115" unicode="&#xe83d;" d="m177 705c-16 0-29-13-29-29 0-16 13-30 29-30 16 0 30 14 30 30 0 16-14 29-30 29m676 118h-705c-65 0-118-53-118-118v-705c0-65 53-118 118-118h705c65 0 118 53 118 118v705c0 65-53 118-118 118m59-823c0-33-26-59-59-59h-705c-33 0-59 26-59 59v529h823v-529z m0 588h-823v117c0 33 26 59 59 59h705c33 0 59-26 59-59v-117z m-500 117c-16 0-29-13-29-29 0-16 13-30 29-30 17 0 30 14 30 30 0 16-13 29-30 29m-117 0c-16 0-30-13-30-29 0-16 14-30 30-30 16 0 29 14 29 30 0 16-13 29-29 29" horiz-adv-x="1000" />
<glyph glyph-name="116" unicode="&#xe83e;" d="m375 508l96 117v-420c0-16 13-29 30-29s29 13 29 29v421l97-118c11-11 30-11 42 0 11 12 11 31 0 42l-146 176c-6 6-14 9-22 9-8 0-16-3-22-9l-146-176c-11-11-11-30 0-42 12-11 31-11 42 0m537-244c-16 0-29-13-29-29v-206h-765v206c0 16-13 29-29 29-16 0-29-13-29-29v-235c0-17 13-30 29-30h823c16 0 29 13 29 30v235c0 16-13 29-29 29" horiz-adv-x="1000" />
<glyph glyph-name="117" unicode="&#xe83f;" d="m824 352h-59c-32 0-59-26-59-58v-353c0-33 27-59 59-59h59c32 0 59 26 59 59v353c0 32-27 58-59 58m0-382c0-16-13-29-30-29s-29 13-29 29v294c0 17 13 30 29 30s30-13 30-30v-294z m-294 853h-59c-32 0-59-27-59-59v-823c0-33 27-59 59-59h59c32 0 59 26 59 59v823c0 32-27 59-59 59m0-853c0-16-13-29-29-29s-30 13-30 29v765c0 16 13 29 30 29s29-13 29-29v-765z m-294 588h-59c-32 0-59-26-59-59v-558c0-33 27-59 59-59h59c32 0 59 26 59 59v558c0 33-27 59-59 59m0-588c0-16-13-29-29-29-17 0-30 13-30 29v500c0 16 13 29 30 29 16 0 29-13 29-29v-500z" horiz-adv-x="1000" />
<glyph glyph-name="118" unicode="&#xe840;" d="m626 432l-96-116v360c0 16-13 29-29 29s-30-13-30-29v-361l-97 117c-11 12-30 12-42 0-11-11-11-30 0-42l146-175c6-6 14-9 22-9 8 0 16 3 22 9l146 175c11 12 11 31 0 42-12 12-31 12-42 0m198 391h-647c-65 0-117-53-117-118v-705c0-65 52-118 117-118h647c65 0 117 53 117 118v705c0 65-52 118-117 118m59-823c0-33-27-59-59-59h-647c-32 0-59 26-59 59v59h765v-59z m0 117h-765v588c0 33 27 59 59 59h647c32 0 59-26 59-59v-588z" horiz-adv-x="1000" />
<glyph glyph-name="119" unicode="&#xe841;" d="m824 823h-647c-65 0-117-53-117-118v-705c0-65 52-118 117-118h647c65 0 117 53 117 118v705c0 65-52 118-117 118m59-823c0-33-27-59-59-59h-647c-32 0-59 26-59 59v588h765v-588z m0 646h-765v59c0 33 27 59 59 59h647c32 0 59-26 59-59v-59z m-508-373l96 116v-360c0-16 13-29 30-29s29 13 29 29v361l97-117c11-12 30-12 42 0 11 11 11 30 0 41l-146 176c-6 6-14 9-22 9-8 0-16-3-22-9l-146-176c-11-11-11-30 0-41 12-12 31-12 42 0" horiz-adv-x="1000" />
<glyph glyph-name="120" unicode="&#xe842;" d="m177 323h361l-117-97c-12-11-12-30 0-42 11-11 30-11 41 0l176 146c6 6 9 14 9 22 0 8-3 16-9 22l-176 146c-11 11-30 11-41 0-12-12-12-31 0-42l116-96h-360c-16 0-29-13-29-30s13-29 29-29m676 470h-705c-65 0-118-52-118-117v-647c0-65 53-118 118-118h705c65 0 118 53 118 118v647c0 65-53 117-118 117m-117-823h-588c-33 0-59 27-59 59v647c0 32 26 59 59 59h588v-765z m176 59c0-32-26-59-59-59h-59v765h59c33 0 59-27 59-59v-647z" horiz-adv-x="1000" />
<glyph glyph-name="121" unicode="&#xe843;" d="m824 382h-361l117 97c12 11 12 30 0 42-11 11-30 11-41 0l-176-146c-6-6-9-14-9-22 0-8 3-16 9-22l176-146c11-11 30-11 41 0 12 12 12 31 0 42l-116 96h360c16 0 29 13 29 29s-13 30-29 30m29 411h-705c-65 0-118-52-118-117v-647c0-65 53-118 118-118h705c65 0 118 53 118 118v647c0 65-53 117-118 117m-646-823h-59c-33 0-59 27-59 59v647c0 32 26 59 59 59h59v-765z m705 59c0-32-26-59-59-59h-588v765h588c33 0 59-27 59-59v-647z" horiz-adv-x="1000" />
<glyph glyph-name="122" unicode="&#xe844;" d="m595 447c-11 11-30 11-42 0l-147-148c-12-11-12-30 0-42 12-11 30-11 42 0l147 148c12 11 12 30 0 42m-347-473c-23-23-61-23-84 0l-42 42c-23 23-23 61 0 84l283 283c-40 10-84 0-115-31l-210-210c-46-46-46-121 0-168l42-42c47-46 122-46 168 0l211 210c31 31 40 75 30 115l-283-283z m673 757l-42 42c-47 46-122 46-168 0l-210-210c-32-31-41-75-31-115l283 283c23 23 61 23 84 0l42-42c23-23 23-61 0-84l-283-283c40-10 84-1 115 30l210 211c46 46 46 121 0 168" horiz-adv-x="1000" />
<glyph glyph-name="123" unicode="&#xe845;" d="m809 617h-176v59c0 32-27 59-59 59h-265v29c0 32-26 59-58 59h-59c-33 0-59-27-59-59v-823c0-33 26-59 59-59h59c32 0 58 26 58 59v264h265v-29c0-32 28-59 59-59h176c33 0 59 27 59 59v382c0 33-26 59-59 59m-558-647c0-16-13-29-30-29-16 0-29 13-29 29v765c0 16 13 29 29 29 17 0 30-13 30-29v-765z m323 324c0-17-13-30-29-30h-236v412h236c16 0 29-13 29-30v-352z m235-89c0-16-13-29-29-29h-147v382h147c16 0 29-13 29-29v-324z" horiz-adv-x="1000" />
<glyph glyph-name="124" unicode="&#xe846;" d="m799 823h-598l-171-294v-118c0-31 11-65 30-88l1-323c0-65 54-118 121-118h636c67 0 123 53 123 118v323c21 24 30 49 30 88v118l-172 294z m84-823c0-33-31-59-65-59h-636c-34 0-63 26-63 59v59h764v-59z m0 117h-764l-1 177h58c32 0 82 28 103 71 24-42 68-71 111-71 44 0 94 26 110 65 17-38 65-65 109-65 43 0 88 32 111 75 27-44 48-75 104-75 9 0 51-2 59 0v-177z m29 294c0-40-47-59-88-59-47 0-90 29-90 59h-28c0-29-52-59-98-59-43 0-94 30-94 59h-28c0-29-52-59-95-59-45 0-97 21-97 59h-28c0-29-45-59-89-59-44 0-88 19-88 59v59h823v-59z m-822 118l137 235h546l140-235h-823z" horiz-adv-x="1000" />
<glyph glyph-name="125" unicode="&#xe847;" d="m286 221l-153 123 153 124c12 11 12 29 0 41-12 11-30 11-42 0l-176-143c-6-6-9-14-8-22-1-8 2-16 8-22l176-142c12-11 30-11 42 0 12 11 12 30 0 41m419 510c-14 8-32 3-40-11l-367-708c-9-14-5-35 10-39 19-6 32-3 40 10l368 709c8 13 3 31-11 39m228-365l-176 143c-12 11-30 11-42 0-11-12-11-30 0-41l153-124-153-123c-11-11-11-30 0-41 12-11 30-11 42 0l176 142c6 6 9 14 9 22 0 8-3 16-9 22" horiz-adv-x="1000" />
<glyph glyph-name="126" unicode="&#xe848;" d="m912 735h-823c-16 0-29-14-29-30v-235c0-16 13-29 29-29 16 0 29 13 29 29v206h765v-206c0-16 13-29 29-29 16 0 29 13 29 29v235c0 17-13 30-29 30m-286-538l-96-117v419c0 17-13 30-29 30-17 0-30-13-30-30v-420l-97 118c-11 11-30 11-42 0s-11-31 0-42l146-176c6-7 14-9 22-9 8 0 16 2 22 9l146 176c11 11 11 30 0 42s-31 11-42 0" horiz-adv-x="1000" />
<glyph glyph-name="127" unicode="&#xe849;" d="m941 558h-191l59 118h74c16 0 29 13 29 29s-13 30-29 30h-118l-91-177h-345l-93 177h-118c-16 0-29-14-29-30s13-29 29-29h74l63-118h-195c-17 0-30-13-30-29 0-16 13-30 30-30h29l29-411c0-65 53-118 118-118h500c65 0 117 53 117 118l59 411h29c17 0 30 14 30 30 0 16-13 29-30 29m-617-529h-88c-32 0-59 26-59 59l-4 59h151v-118z m0 176h-155l-9 118h164v-118z m0 177h-168l-8 117h176v-117z m294-353h-235v118h235v-118z m0 176h-235v118h235v-118z m0 177h-235v117h235v-117z m176-294c0-33-26-59-58-59h-59v118h126l-9-59z m17 117h-134v118h151l-17-118z m25 177h-159v117h176l-17-117z" horiz-adv-x="1000" />
<glyph glyph-name="128" unicode="&#xe84a;" d="m559 0c0-65 53-118 118-118s117 53 117 118-52 117-117 117-118-52-118-117m118 59c32 0 59-27 59-59 0-33-27-59-59-59-33 0-59 26-59 59 0 32 26 59 59 59m-412 117c-32 0-58 26-58 59l676 59c0 0 88 356 88 382 0 16-13 29-30 29h-734v59h29c16 0 29 13 29 29 0 17-13 30-29 30h-176c-17 0-30-13-30-30 0-16 13-29 30-29h88v-529c0-65 52-118 117-118h59 353 264c1 0 0 29 0 59h-676z m-58 470h705l-75-300-630-52v352z m0-646c0-65 52-118 117-118s118 53 118 118-53 117-118 117-117-52-117-117m117 59c33 0 59-27 59-59 0-33-26-59-59-59-32 0-59 26-59 59 0 32 27 59 59 59" horiz-adv-x="1000" />
<glyph glyph-name="129" unicode="&#xe84b;" d="m706 264c-52 0-97-27-123-68l-158 90c11 20 17 43 17 66 0 15-3 29-7 43l164 93c26-29 65-47 107-47 82 0 147 65 147 147s-65 147-147 147-147-66-147-147c0-15 3-29 7-43l-163-93c-27 29-65 47-108 47-81 0-147-65-147-147s66-146 147-146c33 0 64 11 89 30l-1-1 178-102c-1-5-2-10-2-16 0-81 66-147 147-147s147 66 147 147-66 147-147 147m0 412c49 0 88-40 88-88s-39-89-88-89c-48 0-88 40-88 89s40 88 88 88m-411-412c-49 0-88 40-88 88 0 49 39 89 88 89 48 0 88-40 88-89 0-48-40-88-88-88m411-235c-48 0-88 40-88 88s40 88 88 88c49 0 88-39 88-88s-39-88-88-88" horiz-adv-x="1000" />
<glyph glyph-name="130" unicode="&#xe84c;" d="m736 705h-59c0 65-79 118-176 118-98 0-177-53-177-118h-59c-65 0-117-52-117-117v-588c0-65 52-118 117-118h471c65 0 117 53 117 118v588c0 65-52 117-117 117m-235 59c64 0 117-18 117-59h-235c0 41 53 59 118 59m293-764c0-33-26-59-58-59h-471c-32 0-58 26-58 59v59h587v-59z m0 117h-587v471c0 32 26 58 58 58h59v-176h59v176h235v-176h59v176h59c32 0 58-26 58-58v-471z" horiz-adv-x="1000" />
<glyph glyph-name="131" unicode="&#xe84d;" d="m442 29c-33 0-59-26-59-59 0-32 26-59 59-59 32 0 59 27 59 59 0 33-27 59-59 59m-119 529l-73 235h-190c-17 0-30-13-30-29 0-16 13-29 30-29h147l59-177h-1l59-353c0-64 53-117 118-117h323c65 0 118 53 118 117l88 353h-648z m501-353c0-32-26-58-59-58h-323c-33 0-59 26-59 58l-49 294h563l-73-294z m-88-176c-33 0-59-26-59-59 0-32 26-59 59-59 32 0 58 27 58 59 0 33-26 59-58 59" horiz-adv-x="1000" />
<glyph glyph-name="132" unicode="&#xe84e;" d="m912 646h-222c10 18 16 38 16 59 0 65-52 118-117 118-36 0-67-16-88-41-22 25-53 41-89 41-65 0-117-53-117-118 0-21 6-41 16-59h-222c-32 0-59-26-59-58v-59c0-33 27-59 59-59v-470c0-65 53-118 118-118h587c65 0 118 53 118 118v470c33 0 59 26 59 59v59c0 32-26 58-59 58m-323 118c32 0 59-26 59-59 0-32-27-59-59-59s-59 27-59 59c0 33 26 59 59 59m-177 0c33 0 59-26 59-59 0-32-26-59-59-59s-58 27-58 59c0 33 26 59 58 59m59-823h-264c-33 0-59 26-59 59v176h323v-235z m0 294h-323v235h323v-235z m382-235c0-33-26-59-59-59h-264v235h323v-176z m0 235h-323v235h323v-235z m30 294h-765c-16 0-29 13-29 29 0 16 13 30 29 30h765c16 0 29-14 29-30 0-16-13-29-29-29" horiz-adv-x="1000" />
<glyph glyph-name="133" unicode="&#xe84f;" d="m853 823h-705c-65 0-118-53-118-118v-705c0-65 53-118 118-118h705c65 0 118 53 118 118v705c0 65-53 118-118 118m59-823c0-33-26-59-59-59h-705c-33 0-59 26-59 59v705c0 33 26 59 59 59h705c33 0 59-26 59-59v-705z m-434 127c6-7 14-9 22-9 8 0 16 2 22 9l146 175c11 12 11 31 0 42s-31 12-42 0l-96-116v448c0 16-13 29-29 29-17 0-30-13-30-29v-449l-97 117c-11 12-30 12-42 0-11-11-11-30 0-42l146-175z m287-68h-529c-16 0-29-14-29-30 0-16 13-29 29-29h529c16 0 29 13 29 29 0 16-13 30-29 30" horiz-adv-x="1000" />
<glyph glyph-name="134" unicode="&#xe850;" d="m883 585v206c0 17-7 26-22 31-12 5-23 2-37-1l-764-236v-646c0-33 26-59 58-59h765c32 0 58 26 58 59v588c0 32-26 58-58 58m-59 177v-177h-573l573 177z m59-559v-29h-118v29 30h118v-30z m0 89h-147c-17 0-30-14-30-30v-117c0-17 13-30 30-30h147v-147c0-16-13-29-30-29h-705c-16 0-30 13-30 29v559h735c17 0 30-13 30-30v-205z" horiz-adv-x="1000" />
<glyph glyph-name="135" unicode="&#xe851;" d="m853 823h-705c-65 0-118-53-118-118v-705c0-65 53-118 118-118h705c65 0 118 53 118 118v705c0 65-53 118-118 118m59-823c0-33-26-59-59-59h-705c-33 0-59 26-59 59v705c0 33 26 59 59 59h705c33 0 59-26 59-59v-705z m-389 578c-6 7-14 9-22 9-8 0-16-2-22-9l-146-175c-11-12-11-31 0-42 12-12 31-12 42 0l96 116v-448c0-16 13-29 30-29 16 0 29 13 29 29v449l97-117c11-12 30-12 42 0 11 11 11 30 0 42l-146 175z m242 127h-529c-16 0-29-13-29-29 0-16 13-30 29-30h529c16 0 29 14 29 30 0 16-13 29-29 29" horiz-adv-x="1000" />
<glyph glyph-name="136" unicode="&#xe852;" d="m804 531l-267 276c-21 21-55 21-76 0l-267-276c-16-15-15-26-15-47h0v-482c0-66 52-120 117-120h409c65 0 117 54 117 120v452c0 35 4 56-18 77m-37-532c0-33-27-58-59-58h-411c-33 0-60 28-60 61l1 468c0 19 2 31 13 42l229 236c10 11 28 11 38 0l229-236c11-11 20-21 20-42v-471z m-267 575c-64 0-116-54-116-120 0-67 52-121 116-121 65 0 117 54 117 121 0 66-52 120-117 120m0-180c-32 0-58 27-58 60s26 60 58 60c33 0 59-27 59-60s-26-60-59-60" horiz-adv-x="1000" />
<glyph glyph-name="137" unicode="&#xe853;" d="m89 793c-16 0-29-13-29-29v-823c0-16 13-30 29-30 16 0 29 14 29 30v823c0 16-13 29-29 29m794-58l-647 58c-32 0-59-26-59-58v-324c0-32 27-59 59-59l647 59c32 0 58 27 58 59v206c0 32-26 59-58 59m-412-303l-206-21c-27 0-29 6-29 30v264c0 24 2 30 29 30l206-21v-282z m235 23l-176-17v270l176-18v-235z m177 42c0-23-2-27-30-27l-88-9v224l88-9c28 0 30-4 30-28v-151z" horiz-adv-x="1000" />
<glyph glyph-name="138" unicode="&#xe854;" d="m706 294h-411c-16 0-30-13-30-30s14-29 30-29h411c17 0 30 13 30 29s-13 30-30 30m0 177h-411c-16 0-30-13-30-30 0-16 14-29 30-29h411c17 0 30 13 30 29 0 17-13 30-30 30m88 352h-587c-65 0-118-53-118-118v-823h55l121 88 118-88 118 88 117-88 118 88 121-88h55v823c0 65-53 118-118 118m59-883l-117 89-118-94-117 94-118-94-118 94-117-90v766c0 33 26 59 59 59h587c33 0 59-26 59-59v-765z m-147 706h-411c-16 0-30-13-30-29 0-16 14-29 30-29h411c17 0 30 13 30 29 0 16-13 29-30 29" horiz-adv-x="1000" />
<glyph glyph-name="139" unicode="&#xe855;" d="m708 557c-43 88-133 148-237 148-139 0-253-108-263-245-103-29-178-119-178-225 0-125 104-227 235-235 0 0 407 0 412 0 154 0 294 125 294 279 0 149-116 270-263 278m-31-498h-412c0 0-177 18-176 176 1 89 79 171 176 176 0 122 78 235 206 235 101 0 168-61 192-147 146 6 244-109 249-205 6-130-129-235-235-235" horiz-adv-x="1000" />
<glyph glyph-name="140" unicode="&#xe856;" d="m412-59c-16 0-29-13-29-30 0-16 13-29 29-29s30 13 30 29c0 17-13 30-30 30m118 118c-16 0-29-14-29-30 0-16 13-29 29-29s29 13 29 29c0 16-13 30-29 30m-176 0c-17 0-30-14-30-30 0-16 13-29 30-29s29 13 29 29c0 16-13 30-29 30m354 616c-43 87-133 148-237 148-139 0-253-108-263-246-103-29-178-118-178-225 0-125 104-227 235-235h441c144 0 265 125 265 280 0 161-116 269-263 278m-31-499h-382c-147 2-206 114-206 176 0 81 71 171 176 177-1 119 73 235 206 235 101 0 168-62 192-147 136 6 249-90 249-206 0-123-89-235-235-235m-88-235c-17 0-30-13-30-30 0-16 13-29 30-29s29 13 29 29c0 17-13 30-29 30m117 118c-16 0-29-14-29-30 0-16 13-29 29-29s30 13 30 29c0 16-13 30-30 30" horiz-adv-x="1000" />
<glyph glyph-name="141" unicode="&#xe857;" d="m589 382h-118l46 122c6 15-1 33-16 39-15 6-32-1-39-16l-67-163c-3-8-3-16 1-23 4-11 14-19 27-19l125 1-74-133c-7-15-1-33 14-40s30-1 37 15c0 0 93 170 93 187 0 17-13 30-29 30m119 175c-43 88-133 148-237 148-139 0-253-108-263-245-103-29-178-119-178-225 0-125 104-227 235-235 0 0 407 0 412 0 154 0 294 125 294 279 0 149-116 270-263 278m-31-498h-412c0 0-177 18-176 176 1 89 83 169 176 176 0 122 78 235 206 235 101 0 168-61 192-147 146 6 244-109 249-205 6-130-129-235-235-235" horiz-adv-x="1000" />
<glyph glyph-name="142" unicode="&#xe858;" d="m236 29c-16 0-29-13-29-29v-89c0-16 13-29 29-29 16 0 29 13 29 29v89c0 16-13 29-29 29m176 0c-16 0-29-13-29-29v-89c0-16 13-29 29-29 17 0 30 13 30 29v89c0 16-13 29-30 29m296 646c-43 87-133 148-237 148-139 0-253-108-263-246-103-29-178-118-178-225 0-125 104-227 235-234 0 0 407-1 412-1 154 0 294 125 294 280 0 148-116 269-263 278m-31-499h-412c0 0-177 18-176 176 1 90 83 169 176 177 0 122 78 235 206 235 101 0 168-62 192-147 146 6 244-109 249-206 6-129-129-235-235-235m88-147c-16 0-29-13-29-29v-89c0-16 13-29 29-29 16 0 29 13 29 29v89c0 16-13 29-29 29m-176 0c-17 0-30-13-30-29v-89c0-16 13-29 30-29 16 0 29 13 29 29v89c0 16-13 29-29 29" horiz-adv-x="1000" />
<glyph glyph-name="143" unicode="&#xe859;" d="m213 176c27 134 145 235 288 235 142 0 260-101 287-235h62c-23 166-170 294-349 294s-327-128-350-294h62z m640 223l42 42c11 11 11 30 0 41s-30 12-42 0l-41-41c-12-12-12-30 0-42s30-11 41 0m-352 130c16 0 29 13 29 29v59c0 16-13 29-29 29-17 0-30-13-30-29v-59c0-16 13-29 30-29m411-412h-823c-16 0-29-13-29-29s13-29 29-29h823c16 0 29 13 29 29s-13 29-29 29m-764 282c11-11 30-11 41 0 12 12 12 30 0 42l-41 41c-12 12-30 12-42 0-11-11-11-30 0-41l42-42z" horiz-adv-x="1000" />
<glyph glyph-name="144" unicode="&#xe85a;" d="m501 823c-91-110-294-485-294-647 0-162 131-294 294-294 162 0 293 132 293 294 0 162-205 539-293 647m0-882c-130 0-236 103-236 230 0 126 163 449 236 534 70-84 235-408 235-534 0-127-106-230-235-230" horiz-adv-x="1000" />
<glyph glyph-name="145" unicode="&#xe85b;" d="m213 294c27 134 145 235 288 235 142 0 260-101 287-235h62c-23 165-170 294-349 294s-327-129-350-294h62z m640 223l42 41c11 12 11 30 0 42-12 11-30 11-42 0l-41-42c-12-11-12-30 0-41s30-12 41 0m-352 129c16 0 29 14 29 30v59c0 16-13 29-29 29-17 0-30-13-30-29v-59c0-16 13-30 30-30m293-646h-587c-17 0-30-14-30-30 0-16 13-29 30-29h587c17 0 30 13 30 29 0 16-13 30-30 30m-646 517c11-12 30-12 41 0 12 11 12 30 0 41l-41 42c-12 11-30 11-42 0-11-12-11-30 0-42l42-41z m764-282h-823c-16 0-29-13-29-30s13-29 29-29h823c16 0 29 13 29 29s-13 30-29 30m-29-118h-765c-16 0-29-13-29-29 0-16 13-29 29-29h765c16 0 29 13 29 29 0 16-13 29-29 29" horiz-adv-x="1000" />
<glyph glyph-name="146" unicode="&#xe85c;" d="m148 382h-88c-17 0-30-13-30-30s13-29 30-29h88c16 0 29 13 29 29s-13 30-29 30m635 212l62 62c12 11 12 30 0 41s-30 11-41 0l-62-62c-11-11-11-30 0-41 12-11 30-11 41 0m-535-453l-62-62c-11-11-11-29 0-41 12-11 30-11 41 0l62 62c12 11 12 30 0 41-11 12-30 12-41 0m253 535c16 0 29 13 29 29v88c0 17-13 30-29 30s-30-13-30-30v-88c0-16 13-29 30-29m-271-95c12-11 30-11 42 0 11 12 11 30 0 42l-62 62c-12 12-31 12-42 0-11-11-11-30 0-42l62-62z m271-552c-17 0-30-13-30-29v-89c0-16 13-29 30-29s29 13 29 29v89c0 16-13 29-29 29m270 95c-12 11-30 11-42 0-11-12-11-30 0-42l63-62c11-12 30-12 41 0 12 11 12 30 0 41l-62 63z m170 258h-88c-16 0-29-13-29-30s13-29 29-29h88c17 0 30 13 30 29s-13 30-30 30m-440 235c-147 0-265-118-265-265s118-264 265-264c146 0 264 118 264 264s-118 265-264 265m0-470c-114 0-206 92-206 205s92 206 206 206 205-92 205-206-92-205-205-205" horiz-adv-x="1000" />
<glyph glyph-name="147" unicode="&#xe85d;" d="m207 382h529c97 0 176 79 176 176 0 98-79 177-176 177v-59c83-16 117-53 117-118s-68-117-152-117h-494c-17 0-30-14-30-30 0-16 13-29 30-29m147 117h352c17 0 30 14 30 30 0 16-13 29-30 29h-352c-17 0-30-13-30-29 0-16 13-30 30-30m382-176h-618c-16 0-29-13-29-29s13-30 29-30h583c84 0 152-52 152-117s-50-118-176-118v-59h59c97 0 176 79 176 177 0 97-79 176-176 176m-235-118h0-236c-16 0-29-13-29-29 0-16 13-29 29-29h236c32 0 58-27 58-59 0-33-26-59-58-59v-59c64 0 117 53 117 118 0 65-53 117-117 117" horiz-adv-x="1000" />
<glyph glyph-name="148" unicode="&#xe85e;" d="m106 235c-11 37-17 77-17 117 0 228 184 412 412 412s411-184 411-412c0-40-6-80-17-117h60c10 38 16 77 16 117 0 260-211 471-470 471-260 0-471-211-471-471 0-40 6-79 16-117h60z m542-294h-294c-17 0-30-13-30-30s13-29 30-29h146 1 0 147c16 0 29 13 29 29s-13 30-29 30m205 118h-705c-16 0-30-14-30-30s14-29 30-29h705c17 0 30 13 30 29s-13 30-30 30m88 117h-881c-17 0-30-13-30-29s13-30 30-30h881c17 0 30 13 30 30s-13 29-30 29" horiz-adv-x="1000" />
<glyph glyph-name="149" unicode="&#xe85f;" d="m530-30h-294c-16 0-29-13-29-29 0-16 13-30 29-30h294c16 0 29 14 29 30 0 16-13 29-29 29m59 118h-412c-16 0-29-13-29-29s13-30 29-30h412c16 0 29 13 29 30s-13 29-29 29m352 117h-428c-7 34-12 68-12 103 0 203 131 374 314 433-64 33-135 52-212 52-251 0-455-204-455-455 0-46 7-91 19-133h-107c-17 0-30-13-30-29 0-16 13-29 30-29h881c17 0 30 13 30 29 0 16-13 29-30 29m-705 0c-21 47-29 82-29 126 0 239 128 314 235 374 78 37 173 45 235 30-121-57-237-240-237-432 0-34 3-66 8-98h-212z" horiz-adv-x="1000" />
<glyph glyph-name="150" unicode="&#xe860;" d="m508 352c0 203 132 376 316 442-52 18-107 29-166 29-265 0-481-211-481-471 0-259 216-470 481-470 59 0 114 11 166 29-184 66-316 239-316 441m88-411c-146 10-359 184-359 411 0 228 209 399 359 412 45 4 21 4 62 0-98-62-210-234-210-412s82-341 210-411c-39-4-19-3-62 0" horiz-adv-x="1000" />
<glyph glyph-name="151" unicode="&#xe861;" d="m736 795c-98 0-172-57-235-118-61 64-138 118-236 118-138 0-235-119-235-248 0-69 29-119 60-166l365-439c41-43 49-43 90 0l366 439c37 47 60 97 60 166 0 129-97 248-235 248m117-402l-352-421-353 423c-42 58-59 98-59 152 0 101 72 192 176 193 86 1 183-87 236-153 50 64 149 153 235 153 101 0 176-92 176-193 0-54-13-97-59-154" horiz-adv-x="1000" />
<glyph glyph-name="152" unicode="&#xe862;" d="m236 558h529c16 0 29 13 29 30 0 16-13 29-29 29h-529c-16 0-29-13-29-29 0-17 13-30 29-30m529-411h-529c-16 0-29-13-29-30 0-16 13-29 29-29h529c16 0 29 13 29 29 0 17-13 30-29 30m0 235h-529c-16 0-29-13-29-30 0-16 13-29 29-29h529c16 0 29 13 29 29 0 17-13 30-29 30" horiz-adv-x="1000" />
<glyph glyph-name="153" unicode="&#xe863;" d="m971 463l-325 49-145 311-146-311-325-49 235-240-56-341 292 161 291-161-56 341 235 240z m-470-352l-219-122 42 247-188 192 254 33 111 235 109-235 253-36-186-190 39-247-215 123z" horiz-adv-x="1000" />
<glyph glyph-name="154" unicode="&#xe864;" d="m794 235v235c0 162-131 294-293 294-163 0-294-132-294-294v-235l-118-235h268c13-67 72-118 144-118 71 0 130 51 144 118h267l-118 235z m-293-294c-39 0-71 24-83 59h165c-12-35-44-59-82-59m-324 118l88 176v235c0 130 106 235 236 235s235-105 235-235v-235l88-176h-647z" horiz-adv-x="1000" />
<glyph glyph-name="155" unicode="&#xe865;" d="m883 84v478c50 13 88 59 88 114 0 65-53 117-118 117-54 0-100-37-113-88h-479c-13 51-58 88-113 88-65 0-118-52-118-117 0-55 38-101 88-114v-478c-50-13-88-59-88-114 0-65 53-117 118-117 55 0 100 37 113 88h479c13-51 59-88 113-88 65 0 118 52 118 117 0 55-38 101-88 114m-30 651c33 0 59-27 59-59 0-33-26-59-59-59-32 0-59 26-59 59 0 32 27 59 59 59m-764-59c0 32 26 59 59 59 32 0 59-27 59-59 0-33-27-59-59-59-33 0-59 26-59 59m59-765c-33 0-59 27-59 59 0 33 26 59 59 59 32 0 59-26 59-59 0-32-27-59-59-59m592 89h-479c-10 41-43 73-84 84v478c41 11 74 43 84 84h479c11-41 43-73 84-84v-478c-41-11-73-43-84-84m113-89c-32 0-59 27-59 59 0 33 27 59 59 59 33 0 59-26 59-59 0-32-26-59-59-59" horiz-adv-x="1000" />
<glyph glyph-name="156" unicode="&#xe866;" d="m941 29h-88v500l-59-59v-441h-547l642 670-42 42-640-669v545h412l54 59h-466v88c0 16-14 29-30 29-16 0-29-13-29-29v-88h-88c-17 0-30-13-30-30 0-16 13-29 30-29h88v-588-59h59 587v-88c0-16 14-29 30-29s29 13 29 29v88h88c17 0 30 13 30 30 0 16-13 29-30 29" horiz-adv-x="1000" />
<glyph glyph-name="157" unicode="&#xe867;" d="m501 820l-442-519 42-41 106 119v-382c0-65 53-117 118-117h351c65 0 118 52 118 117v382l106-119 42 41-441 519z m234-823c0-32-27-59-59-59h-351c-32 0-60 27-60 59v452l236 285 235-284-1-453z" horiz-adv-x="1000" />
<glyph glyph-name="158" unicode="&#xe868;" d="m775 753c-140 79-319 32-400-105l-117-198-219-141 228-128c-40-69-16-156 54-196 70-39 159-16 200 53l228-129 16 255 117 198c81 137 33 312-107 391m-425-718c-42 23-56 76-32 117l152-86c-24-41-78-55-120-31m481 356l-117-198-12-192-558 315 164 106 117 198c65 109 208 146 320 83 112-63 151-203 86-312" horiz-adv-x="1000" />
<glyph glyph-name="159" unicode="&#xe869;" d="m513 780c-243 0-441-197-441-441 0-243 198-441 441-441 244 0 441 198 441 441 0 244-197 441-441 441m29-822v146c0 16-13 29-29 29s-29-13-29-29v-146c-188 15-337 164-352 352h146c16 0 29 13 29 29 0 16-13 30-29 30h-146c15 187 164 336 352 351v-146c0-16 13-29 29-29s29 13 29 29v146c188-15 337-164 352-351h-146c-16 0-29-14-29-30 0-16 13-29 29-29h146c-15-188-164-337-352-352" horiz-adv-x="1000" />
<glyph glyph-name="160" unicode="&#xe86a;" d="m100-10v235h-59v-235c0-65 53-118 118-118h235v59h-235c-33 0-59 26-59 59m-59 705v-235h59v235c0 33 26 59 59 59h235v59h-235c-65 0-118-53-118-118m882-705c0-33-27-59-59-59h-235v-59h235c65 0 118 53 118 118v235h-59v-235z m-59 823h-235v-59h235c32 0 59-26 59-59v-235h59v235c0 65-53 118-118 118" horiz-adv-x="1000" />
<glyph glyph-name="161" unicode="&#xe86b;" d="m853 820h-471c-64 0-117-52-117-117v-471c0-64 53-117 117-117h471c65 0 117 53 117 117v471c0 65-52 117-117 117m59-588c0-32-27-58-59-58h-471c-32 0-58 26-58 58v471c0 32 26 59 58 59h471c32 0 59-27 59-59v-471z m-236-235c0-32-26-59-58-59h-471c-32 0-58 27-58 59v471c0 32 26 58 58 58h59v59h-59c-65 0-117-52-117-117v-471c0-65 52-117 117-117h471c65 0 117 52 117 117v59h-59v-59z" horiz-adv-x="1000" />
<glyph glyph-name="162" unicode="&#xe86c;" d="m147 144c-65 0-117-52-117-117s52-118 117-118c65 0 118 53 118 118s-53 117-118 117m0-176c-32 0-58 26-58 59 0 32 26 58 58 58 33 0 59-26 59-58 0-33-26-59-59-59m706 470c-65 0-118-52-118-117s53-118 118-118 117 53 117 118-52 117-117 117m0-176c-33 0-59 26-59 59 0 32 26 58 59 58 32 0 59-26 59-58 0-33-27-59-59-59m0 235c65 0 117 53 117 118s-52 117-117 117-118-52-118-117 53-118 118-118m0 176c32 0 59-26 59-58 0-33-27-59-59-59-33 0-59 26-59 59 0 32 26 58 59 58m-706-235c-65 0-117-52-117-117s52-118 117-118c65 0 118 53 118 118s-53 117-118 117m0-176c-32 0-58 26-58 59 0 32 26 58 58 58 33 0 59-26 59-58 0-33-26-59-59-59m353-118c-65 0-118-52-118-117s53-118 118-118 118 53 118 118-53 117-118 117m0-176c-32 0-59 26-59 59 0 32 27 58 59 58 33 0 59-26 59-58 0-33-27-59-59-59m0 764c-65 0-118-52-118-117s53-118 118-118 118 53 118 118-53 117-118 117m0-176c-32 0-59 26-59 59 0 32 27 58 59 58 33 0 59-26 59-58 0-33-27-59-59-59m-353 176c-65 0-117-52-117-117s52-118 117-118c65 0 118 53 118 118s-53 117-118 117m0-176c-32 0-58 26-58 59 0 32 26 58 58 58 33 0 59-26 59-58 0-33-26-59-59-59m353-118c-65 0-118-52-118-117s53-118 118-118 118 53 118 118-53 117-118 117m0-176c-32 0-59 26-59 59 0 32 27 58 59 58 33 0 59-26 59-58 0-33-27-59-59-59m353-118c-65 0-118-52-118-117s53-118 118-118 117 53 117 118-52 117-117 117m0-176c-33 0-59 26-59 59 0 32 26 58 59 58 32 0 59-26 59-58 0-33-27-59-59-59" horiz-adv-x="1000" />
<glyph glyph-name="163" unicode="&#xe86d;" d="m540 137c-12-11-12-30 0-41s30-12 41 0l203 202c6 7 9 15 8 23 1 8-2 16-8 22l-203 203c-11 11-30 11-41 0-12-12-12-30 0-42l154-154h-635c-16 0-29-13-29-29 0-17 13-30 29-30h635l-154-154z m313 595h-588c-65 0-118-52-118-117v-118h59v118c0 32 26 58 59 58h588c32 0 59-26 59-58v-588c0-33-27-59-59-59h-588c-33 0-59 26-59 59v117h-59v-117c0-65 53-118 118-118h588c65 0 117 53 117 118v588c0 65-52 117-117 117" horiz-adv-x="1000" />
<glyph glyph-name="164" unicode="&#xe86e;" d="m794 27c0-33-26-59-59-59h-588c-32 0-58 26-58 59v588c0 32 26 58 58 58h588c33 0 59-26 59-58v-89h59v89c0 65-53 117-118 117h-588c-65 0-117-52-117-117v-588c0-65 52-118 117-118h588c65 0 118 53 118 118v88h-59v-88z m147 323h-635l155 154c11 12 11 30 0 42-12 11-31 11-42 0l-203-203c-6-6-9-14-8-22-1-8 2-16 8-23l203-202c11-12 30-12 42 0 11 11 11 30 0 41l-155 154h635c16 0 29 13 29 30 0 16-13 29-29 29" horiz-adv-x="1000" />
<glyph glyph-name="165" unicode="&#xe86f;" d="m412 409c0 16-13 29-30 29s-29-13-29-29v-206c0-16 13-29 29-29h206c17 0 30 13 30 29 0 16-13 30-30 29h-132l435 435c11 12 11 30 0 42-12 11-30 11-42 0l-437-438v138z m441-59v-323c0-32-27-59-59-59l-590-1c-32 0-58 26-58 58l1 590c0 32 27 58 59 58h323v59h-323c-64 0-117-65-117-129v-578c0-64 51-116 115-116h578c64 0 130 54 130 118v323h-59z" horiz-adv-x="1000" />
<glyph glyph-name="166" unicode="&#xe870;" d="m324 262h-118c-65 0-117-53-117-118v-117c0-65 52-118 117-118h118c65 0 117 53 117 118v117c0 65-52 118-117 118m58-235c0-33-26-59-58-59h-118c-32 0-59 26-59 59v117c0 33 27 59 59 59h118c32 0 58-26 58-59v-117z m-58 705h-118c-65 0-117-52-117-117v-118c0-65 52-118 117-118h118c65 0 117 53 117 118v118c0 65-52 117-117 117m58-235c0-32-26-59-58-59h-118c-32 0-59 27-59 59v118c0 32 27 58 59 58h118c32 0 58-26 58-58v-118z m412 235h-118c-65 0-117-52-117-117v-118c0-65 52-118 117-118h118c65 0 118 53 118 118v118c0 65-53 117-118 117m59-235c0-32-27-59-59-59h-118c-32 0-58 27-58 59v118c0 32 26 58 58 58h118c32 0 59-26 59-58v-118z m-59-235h-118c-65 0-117-53-117-118v-117c0-65 52-118 117-118h118c65 0 118 53 118 118v117c0 65-53 118-118 118m59-235c0-33-27-59-59-59h-118c-32 0-58 26-58 59v117c0 33 26 59 58 59h118c32 0 59-26 59-59v-117z" horiz-adv-x="1000" />
<glyph glyph-name="167" unicode="&#xe871;" d="m853 27c0-32-27-59-59-59l-590-1c-32 0-58 26-58 58l1 590c0 32 27 58 59 58h323v59h-323c-64 0-117-65-117-129v-578c0-64 51-116 115-116h578c64 0 130 54 130 118v323h-59v-323z m29 705h-206c-16 0-29-13-29-29s13-30 29-30l130 1-444-423c-12-11-12-29 0-40 12-11 31-11 43 0l447 426 1-140c0-16 12-29 29-29 17 0 30 13 30 29v207c0 15-14 28-30 28" horiz-adv-x="1000" />
<glyph glyph-name="168" unicode="&#xe872;" d="m725 402l-203 203c-6 6-14 8-22 8-8 0-16-2-22-8l-203-203c-12-12-12-30 0-42 11-11 30-11 42 0l154 154v-634c0-17 13-30 29-30 16 0 29 13 29 30v634l155-154c11-11 30-11 41 0 12 12 12 30 0 42m69 389h-588c-65 0-117-53-117-118v-588c0-64 52-117 117-117h88v59h-88c-32 0-59 26-59 58v588c0 33 27 59 59 59h588c32 0 59-26 59-59v-588c0-32-27-58-59-58h-88v-59h88c65 0 118 53 118 117v588c0 65-53 118-118 118" horiz-adv-x="1000" />
<glyph glyph-name="169" unicode="&#xe873;" d="m275 240l203-203c6-6 14-9 22-9 8 0 16 3 22 9l203 203c12 11 12 30 0 41-11 12-30 12-41 0l-155-154v635c0 16-13 29-29 29s-29-13-29-29v-635l-154 154c-12 12-31 12-42 0-12-11-12-30 0-41m519 433h-88v-58h88c32 0 59-27 59-59v-588c0-33-27-59-59-59h-588c-32 0-59 26-59 59v588c0 32 27 59 59 59h88v58h-88c-65 0-117-52-117-117v-588c0-65 52-118 117-118h588c65 0 118 53 118 118v588c0 65-53 117-118 117" horiz-adv-x="1000" />
<glyph glyph-name="170" unicode="&#xe874;" d="m441 48h-195l200 200-41 42-200-200 1 193c0 17-13 30-29 30-17 0-30-13-30-30v-264c0-9 4-16 10-21 5-5 12-9 21-9h263c17 0 30 13 30 30s-13 29-30 29m412 764h-706c-65 0-117-52-117-117v-706c0-65 52-117 117-117h706c65 0 117 52 117 117v706c0 65-52 117-117 117m59-823c0-32-27-59-59-59h-706c-32 0-58 27-58 59v706c0 32 26 59 58 59h706c32 0 59-27 59-59v-706z m-89 706h-264c-16 0-30-13-30-30s14-29 30-29h195l-200-200 41-41 200 199-1-193c0-16 13-30 29-30s30 14 30 30v264c0 9-4 16-9 21-6 5-13 9-21 9" horiz-adv-x="1000" />
<glyph glyph-name="171" unicode="&#xe875;" d="m441 321h-264c-16 0-29-13-29-30s13-29 29-29h195l-200-200 42-42 199 200-1-193c0-17 14-30 30-30 16 0 29 13 29 30v264c0 9-3 16-9 21-5 5-13 9-21 9m383 117h-195l200 200-42 42-199-200 1 193c0 17-13 30-30 30-16 0-29-13-29-30v-264c0-9 4-16 9-21 6-5 13-9 21-9h264c16 0 29 14 29 30 0 16-13 29-29 29m29 382h-705c-65 0-118-52-118-117v-706c0-65 53-117 118-117h705c65 0 118 52 118 117v706c0 65-53 117-118 117m59-823c0-32-26-59-59-59h-705c-33 0-59 27-59 59v706c0 32 26 59 59 59h705c33 0 59-27 59-59v-706z" horiz-adv-x="1000" />
<glyph glyph-name="172" unicode="&#xe876;" d="m853 820h-706c-65 0-117-52-117-117v-706c0-65 52-117 117-117h706c65 0 117 52 117 117v706c0 65-52 117-117 117m59-823c0-32-27-59-59-59h-706c-32 0-58 27-58 59v706c0 32 26 59 58 59h706c32 0 59-27 59-59v-706z m-507 301l-141-141 1 75c0 17-13 30-30 30-16 0-29-13-29-30v-147c0-8 4-15 9-20 6-6 13-9 21-9h146c17 0 30 13 30 29 0 17-13 30-30 30h-77l141 141-41 42z m-23 287c17 0 30 13 30 30 0 16-13 29-30 29h-146c-8 0-15-3-21-9-5-5-9-12-9-20v-147c0-17 13-30 29-30 17 0 30 13 30 30l-1 75 141-140 41 41-141 141h77z m382 59h-146c-17 0-30-13-30-29 0-17 13-30 30-30h77l-141-141 41-41 141 140-1-75c0-17 13-30 30-30 16 0 29 13 29 30v147c0 8-4 15-9 20-6 6-13 9-21 9m1-382c-17 0-30-13-30-30l1-75-141 141-41-42 141-141h-77c-17 0-30-13-30-30 0-16 13-29 30-29h146c8 0 15 3 21 9 5 5 9 12 9 20v147c0 17-13 30-29 30" horiz-adv-x="1000" />
<glyph glyph-name="173" unicode="&#xe877;" d="m853 820h-706c-65 0-117-52-117-117v-706c0-65 52-117 117-117h706c65 0 117 52 117 117v706c0 65-52 117-117 117m59-823c0-32-27-59-59-59h-706c-32 0-58 27-58 59v706c0 32 26 59 58 59h706c32 0 59-27 59-59v-706z m-245 638c-12 11-30 11-42 0l-264-263c-6-6-8-14-8-22 0-8 2-17 8-23l264-263c12-11 30-11 42 0s12 31 0 42l-244 244 244 243c12 11 12 30 0 42" horiz-adv-x="1000" />
<glyph glyph-name="174" unicode="&#xe878;" d="m743 517l-243-244-244 244c-11 12-30 12-42 0-11-11-11-30 0-42l263-264c6-6 15-8 23-8 8 0 16 2 22 8l263 264c11 12 11 31 0 42s-31 12-42 0m110 303h-706c-65 0-117-52-117-117v-706c0-65 52-117 117-117h706c65 0 117 52 117 117v706c0 65-52 117-117 117m59-823c0-32-27-59-59-59h-706c-32 0-58 27-58 59v706c0 32 26 59 58 59h706c32 0 59-27 59-59v-706z" horiz-adv-x="1000" />
<glyph glyph-name="175" unicode="&#xe879;" d="m853 820h-706c-65 0-117-52-117-117v-706c0-65 52-117 117-117h706c65 0 117 52 117 117v706c0 65-52 117-117 117m59-823c0-32-27-59-59-59h-706c-32 0-58 27-58 59v706c0 32 26 59 58 59h706c32 0 59-27 59-59v-706z m-537 638c-12 11-30 11-42 0-12-12-12-30 0-42l244-243-244-244c-12-11-12-30 0-42 12-11 30-11 42 0l264 263c6 6 9 14 8 23 1 8-2 16-8 22l-264 263z" horiz-adv-x="1000" />
<glyph glyph-name="176" unicode="&#xe87a;" d="m853 820h-706c-65 0-117-52-117-117v-706c0-65 52-117 117-117h706c65 0 117 52 117 117v706c0 65-52 117-117 117m59-823c0-32-27-59-59-59h-706c-32 0-58 27-58 59v706c0 32 26 59 58 59h706c32 0 59-27 59-59v-706z m-389 492c-6 6-14 9-23 8-8 1-16-2-22-8l-263-264c-11-12-11-30 0-42 12-12 31-12 42 0l243 244 244-244c11-12 30-12 42 0 11 12 11 30 0 42l-263 264z" horiz-adv-x="1000" />
<glyph glyph-name="177" unicode="&#xe87b;" d="m676 379h-311l121 122c12 11 12 30 0 41-11 12-30 12-41 0l-166-166c-7-7-10-17-8-26-2-9 1-19 8-26l166-166c11-12 30-12 41 0 12 11 12 30 0 42l-121 121h311c17 0 30 13 30 29 0 16-13 29-30 29m177 441h-706c-65 0-117-52-117-117v-706c0-65 52-117 117-117h706c65 0 117 52 117 117v706c0 65-52 117-117 117m59-823c0-32-27-59-59-59h-706c-32 0-58 27-58 59v706c0 32 26 59 58 59h706c32 0 59-27 59-59v-706z" horiz-adv-x="1000" />
<glyph glyph-name="178" unicode="&#xe87c;" d="m722 376l-167 166c-11 12-30 12-41 0s-12-30 0-41l121-122h-311c-17 0-30-13-30-29 0-16 13-29 30-29h311l-121-121c-12-12-12-31 0-42 11-12 30-12 41 0l167 166c7 7 9 17 7 26 2 9 0 19-7 26m131 444h-706c-65 0-117-52-117-117v-706c0-65 52-117 117-117h706c65 0 117 52 117 117v706c0 65-52 117-117 117m59-823c0-32-27-59-59-59h-706c-32 0-58 27-58 59v706c0 32 26 59 58 59h706c32 0 59-27 59-59v-706z" horiz-adv-x="1000" />
<glyph glyph-name="179" unicode="&#xe87d;" d="m526 572c-7 7-17 9-26 7-9 2-19 0-26-7l-166-167c-12-11-12-30 0-41 11-12 30-12 42 0l121 121v-311c0-17 13-30 29-30 16 0 29 13 29 30v311l122-121c11-12 30-12 41 0 12 11 12 30 0 41l-166 167z m327 248h-706c-65 0-117-52-117-117v-706c0-65 52-117 117-117h706c65 0 117 52 117 117v706c0 65-52 117-117 117m59-823c0-32-27-59-59-59h-706c-32 0-58 27-58 59v706c0 32 26 59 58 59h706c32 0 59-27 59-59v-706z" horiz-adv-x="1000" />
<glyph glyph-name="180" unicode="&#xe87e;" d="m651 336l-122-121v311c0 17-13 30-29 30s-29-13-29-30v-311l-121 121c-12 12-31 12-42 0-12-11-12-30 0-41l166-166c7-7 17-10 26-8 9-2 19 1 26 8l166 166c12 11 12 30 0 41-11 12-30 12-41 0m202 484h-706c-65 0-117-52-117-117v-706c0-65 52-117 117-117h706c65 0 117 52 117 117v706c0 65-52 117-117 117m59-823c0-32-27-59-59-59h-706c-32 0-58 27-58 59v706c0 32 26 59 58 59h706c32 0 59-27 59-59v-706z" horiz-adv-x="1000" />
<glyph glyph-name="181" unicode="&#xe87f;" d="m841 820h-705c-65 0-118-52-118-117v-706c0-65 53-117 118-117h705c65 0 118 52 118 117v706c0 65-53 117-118 117m59-823c0-32-26-59-59-59h-705c-33 0-59 27-59 59v706c0 32 26 59 59 59h705c33 0 59-27 59-59v-706z m-235 382h-147v147c0 17-13 30-30 30-16 0-29-13-29-30v-147h-147c-16 0-29-13-29-29 0-16 13-29 29-29h147v-147c0-17 13-30 29-30 17 0 30 13 30 30v147h147c16 0 29 13 29 29 0 16-13 29-29 29" horiz-adv-x="1000" />
<glyph glyph-name="182" unicode="&#xe880;" d="m676 379h-352c-17 0-30-13-30-29 0-16 13-29 30-29h352c17 0 30 13 30 29 0 16-13 29-30 29m177 441h-706c-65 0-117-52-117-117v-706c0-65 52-117 117-117h706c65 0 117 52 117 117v706c0 65-52 117-117 117m59-823c0-32-27-59-59-59h-706c-32 0-58 27-58 59v706c0 32 26 59 58 59h706c32 0 59-27 59-59v-706z" horiz-adv-x="1000" />
<glyph glyph-name="183" unicode="&#xe881;" d="m646 496c-12 11-31 11-42 0l-104-104-104 104c-11 11-30 11-41 0-12-12-12-31 0-42l103-104-103-104c-12-11-12-30 0-41 11-12 30-12 41 0l104 103 104-103c11-12 30-12 42 0 11 11 11 30 0 41l-104 104 104 104c11 11 11 30 0 42m207 324h-706c-65 0-117-52-117-117v-706c0-65 52-117 117-117h706c65 0 117 52 117 117v706c0 65-52 117-117 117m59-823c0-32-27-59-59-59h-706c-32 0-58 27-58 59v706c0 32 26 59 58 59h706c32 0 59-27 59-59v-706z" horiz-adv-x="1000" />
<glyph glyph-name="184" unicode="&#xe882;" d="m147 526h706c65 0 117 53 117 118s-52 118-117 118h-706c-65 0-117-53-117-118s52-118 117-118m0 177h706c32 0 59-27 59-59 0-32-27-59-59-59h-706c-32 0-58 27-58 59 0 32 26 59 58 59m706-529h-706c-65 0-117-53-117-118s52-118 117-118h706c65 0 117 53 117 118s-52 118-117 118m0-177h-706c-32 0-58 27-58 59s26 59 58 59h706c32 0 59-26 59-59s-27-59-59-59m0 471h-706c-65 0-117-53-117-118 0-65 52-117 117-117h706c65 0 117 52 117 117 0 65-52 118-117 118m0-177h-706c-32 0-58 27-58 59 0 33 26 59 58 59h706c32 0 59-26 59-59 0-32-27-59-59-59" horiz-adv-x="1000" />
<glyph glyph-name="185" unicode="&#xe883;" d="m677 554c-14 8-32 3-40-11l-188-326-105 97c-11 12-30 13-42 2-12-11-12-30-1-42l134-124c11-12 30-12 42-1 3 3 211 365 211 365 8 14 3 32-11 40m176 266h-706c-65 0-117-52-117-117v-706c0-65 52-117 117-117h706c65 0 117 52 117 117v706c0 65-52 117-117 117m59-823c0-32-27-59-59-59h-706c-32 0-58 27-58 59v706c0 32 26 59 58 59h706c32 0 59-27 59-59v-706z" horiz-adv-x="1000" />
<glyph glyph-name="186" unicode="&#xe884;" d="m667 350l166 167c46 46 46 120 0 166-46 46-121 46-166 0l-167-166-166 166c-46 46-121 46-167 0-46-46-46-120 0-166l167-167-167-166c-46-46-46-121 0-167 46-46 121-46 167 0l166 167 167-167c45-46 120-46 166 0 46 46 46 121 0 167l-166 166z m124-291c-23-23-60-23-83 0l-208 208-208-208c-23-23-60-23-83 0-23 23-23 60 0 83l208 208-208 208c-23 23-23 60 0 83 23 23 60 23 83 0l208-208 208 208c23 23 60 23 83 0 23-23 23-60 0-83l-208-208 208-208c23-23 23-60 0-83" horiz-adv-x="1000" />
<glyph glyph-name="187" unicode="&#xe885;" d="m500 820c-260 0-470-210-470-470 0-260 210-470 470-470s470 210 470 470c0 260-210 470-470 470m0-882c-227 0-411 185-411 412 0 227 184 412 411 412s412-185 412-412c0-227-185-412-412-412m133 663c-11 11-30 11-41 0l-225-225c-7-7-9-17-8-26-2-9 1-19 8-26l225-225c11-11 30-11 41 0s12 30 0 42l-209 209 209 209c12 12 12 30 0 42" horiz-adv-x="1000" />
<glyph glyph-name="188" unicode="&#xe886;" d="m853 468h-235v235c0 65-53 117-118 117s-118-52-118-117v-235h-235c-65 0-117-53-117-118 0-65 52-117 117-117h235v-236c0-65 53-117 118-117s118 52 118 117v236h235c65 0 117 52 117 117 0 65-52 118-117 118m0-177h-294v-294c0-32-26-59-59-59-32 0-59 27-59 59v294h-294c-32 0-58 27-58 59 0 33 26 59 58 59h294v294c0 32 27 59 59 59 33 0 59-27 59-59v-294h294c32 0 59-26 59-59 0-32-27-59-59-59" horiz-adv-x="1000" />
<glyph glyph-name="189" unicode="&#xe887;" d="m853 438h-706c-65 0-117-52-117-117 0-65 52-118 117-118h706c65 0 117 53 117 118 0 65-52 117-117 117m0-176h-706c-32 0-58 26-58 59 0 32 26 58 58 58h706c32 0 59-26 59-58 0-33-27-59-59-59" horiz-adv-x="1000" />
<glyph glyph-name="190" unicode="&#xe888;" d="m526 483c-7 7-17 10-26 8-9 2-19-1-26-8l-225-225c-11-11-11-30 0-41 12-12 30-12 42 0l209 209 209-209c12-12 30-12 42 0 11 11 11 30 0 41l-225 225z m-26 337c-260 0-470-210-470-470s210-470 470-470 470 210 470 470-210 470-470 470m0-882c-227 0-411 185-411 412 0 227 184 412 411 412s412-185 412-412c0-227-185-412-412-412" horiz-adv-x="1000" />
<glyph glyph-name="191" unicode="&#xe889;" d="m692 376l-166 166c-12 12-30 12-42 0-11-11-11-30 0-41l121-122h-311c-16 0-29-13-29-29 0-16 13-29 29-29h311l-121-121c-11-12-11-31 0-42 12-12 30-12 42 0l166 166c7 7 9 17 8 26 1 9-1 19-8 26m-192 444c-260 0-470-210-470-470s210-470 470-470c260 0 470 210 470 470s-210 470-470 470m0-882c-227 0-411 185-411 412 0 227 184 412 411 412s412-185 412-412c0-227-185-412-412-412" horiz-adv-x="1000" />
<glyph glyph-name="192" unicode="&#xe88a;" d="m706 379h-311l121 122c11 11 11 30 0 41-12 12-30 12-42 0l-166-166c-7-7-9-17-8-26-1-9 1-19 8-26l166-166c12-12 30-12 42 0 11 11 11 30 0 42l-121 121h311c16 0 29 13 29 29 0 16-13 29-29 29m-206 441c-260 0-470-210-470-470s210-470 470-470 470 210 470 470-210 470-470 470m0-882c-227 0-411 185-411 412 0 227 184 412 411 412s412-185 412-412c0-227-185-412-412-412" horiz-adv-x="1000" />
<glyph glyph-name="193" unicode="&#xe88b;" d="m500 820c-260 0-470-210-470-470s210-470 470-470c260 0 470 210 470 470s-210 470-470 470m0-882c-227 0-411 185-411 412 0 227 184 412 411 412s412-185 412-412c0-227-185-412-412-412m26 604c-7 7-17 9-26 8-9 1-19-1-26-8l-166-166c-12-12-12-30 0-42 11-11 30-11 42 0l121 121v-311c0-16 13-29 29-29s29 13 29 29v311l122-121c11-11 30-11 41 0s12 30 0 42l-166 166z" horiz-adv-x="1000" />
<glyph glyph-name="194" unicode="&#xe88c;" d="m651 366l-122-121v311c0 16-13 29-29 29s-29-13-29-29v-311l-121 121c-12 11-31 11-42 0-12-12-12-30 0-42l166-166c7-7 17-9 26-8 9-1 19 1 26 8l166 166c12 12 12 30 0 42-11 11-30 11-41 0m-151 454c-260 0-470-210-470-470s210-470 470-470c260 0 470 210 470 470s-210 470-470 470m0-882c-227 0-411 185-411 412 0 227 184 412 411 412s412-185 412-412c0-227-185-412-412-412" horiz-adv-x="1000" />
<glyph glyph-name="195" unicode="&#xe88d;" d="m500 820c-260 0-470-210-470-470s210-470 470-470c260 0 470 210 470 470s-210 470-470 470m0-882c-227 0-411 185-411 412 0 227 184 412 411 412s412-185 412-412c0-227-185-412-412-412m176 441h-147v147c0 17-13 30-29 30s-29-13-29-30v-147h-147c-17 0-30-13-30-29 0-16 13-29 30-29h147v-147c0-17 13-30 29-30s29 13 29 30v147h147c17 0 30 13 30 29 0 16-13 29-30 29" horiz-adv-x="1000" />
<glyph glyph-name="196" unicode="&#xe88e;" d="m676 379h-352c-17 0-30-13-30-29 0-16 13-29 30-29h352c17 0 30 13 30 29 0 16-13 29-30 29m-176 441c-260 0-470-210-470-470s210-470 470-470c260 0 470 210 470 470s-210 470-470 470m0-882c-227 0-411 185-411 412 0 227 184 412 411 412s412-185 412-412c0-227-185-412-412-412" horiz-adv-x="1000" />
<glyph glyph-name="197" unicode="&#xe88f;" d="m668 518c-12 12-30 12-42 0l-126-126-125 124c-11 12-30 12-41 0-12-11-12-30 0-41l124-125-125-125c-12-12-12-30 0-42 11-12 30-12 42 0l125 125 125-124c11-12 30-12 41 0 12 11 12 30 0 41l-124 125 126 126c12 12 12 31 0 42m-168 302c-260 0-470-210-470-470s210-470 470-470c260 0 470 210 470 470s-210 470-470 470m0-882c-227 0-411 185-411 412 0 227 184 412 411 412s412-185 412-412c0-227-185-412-412-412" horiz-adv-x="1000" />
<glyph glyph-name="198" unicode="&#xe890;" d="m59 468h294c16 0 29 13 29 29 0 16-13 29-29 29h-225c67 139 208 236 372 236 207 0 378-154 407-353h59c-29 232-226 411-466 411-177 0-331-98-411-242v213c0 16-14 29-30 29-16 0-29-13-29-29v-294c0-28 29-29 29-29m882-236h-294c-16 0-29-13-29-29 0-16 13-29 29-29h224c-66-139-207-236-371-236-207 0-378 154-407 353h-59c29-232 226-411 466-411 177 0 331 98 412 243v-214c0-16 13-29 29-29 16 0 29 13 29 29v294c0 31-29 29-29 29" horiz-adv-x="1000" />
<glyph glyph-name="199" unicode="&#xe891;" d="m677 554c-14 8-32 3-40-11l-188-326-105 97c-11 12-30 13-42 2-12-11-12-30-1-42l134-124c11-12 30-12 42-1 3 3 211 365 211 365 8 14 3 32-11 40m-177 266c-260 0-470-210-470-470 0-260 210-470 470-470s470 210 470 470c0 260-210 470-470 470m0-882c-227 0-411 185-411 412s184 412 411 412 412-185 412-412-185-412-412-412" horiz-adv-x="1000" />
<glyph glyph-name="200" unicode="&#xe892;" d="m961-69l-242 239c63 69 102 160 102 261 0 215-177 389-396 389-218 0-395-174-395-389 0-215 177-389 395-389 95 0 181 32 250 87l243-240c12-12 31-12 43 0 12 11 12 30 0 42m-535 170c-185 0-335 148-335 330s150 329 335 329 334-147 334-329-150-330-334-330" horiz-adv-x="1000" />
<glyph glyph-name="201" unicode="&#xe893;" d="m728 762h213c16 0 29 13 29 29 0 16-13 29-29 29h-294c-4 0-29 0-29-29v-294c0-16 13-29 29-29 16 0 29 13 29 29v225c139-66 236-208 236-372 0-227-185-412-412-412s-411 185-411 412c0 207 153 378 352 407v59c-232-29-411-226-411-466 0-260 210-470 470-470 260 0 470 210 470 470 0 177-98 331-242 412" horiz-adv-x="1000" />
<glyph glyph-name="202" unicode="&#xe894;" d="m574 455h-117v118c0 16-13 30-30 30s-29-14-29-30v-118h-117c-17 0-30-5-30-21s13-37 30-37h117v-118c0-16 13-29 29-29s30 13 30 29v118h117c16 0 30 13 30 29s-14 29-30 29m387-524l-242 239c63 69 102 160 102 261 0 215-177 389-396 389-218 0-395-174-395-389 0-215 177-389 395-389 95 0 181 32 250 87l243-240c12-12 31-12 43 0 12 11 12 30 0 42m-535 170c-185 0-335 148-335 330s150 329 335 329 334-147 334-329-150-330-334-330" horiz-adv-x="1000" />
<glyph glyph-name="203" unicode="&#xe895;" d="m961-69l-243 239c64 69 103 160 103 261 0 215-177 389-395 389-219 0-396-174-396-389s177-389 396-389c94 0 181 32 249 87l243-240c12-12 31-12 43 0 12 11 12 30 0 42m-535 170c-185 0-335 148-335 330 0 182 150 329 335 329 184 0 334-147 334-329 0-182-150-330-334-330m153 355h-295c-16 0-29-13-29-29s13-28 29-28h295c16 0 29 13 29 28s-13 29-29 29" horiz-adv-x="1000" />
<glyph glyph-name="204" unicode="&#xe896;" d="m708 555c-43 87-133 148-237 148-140 0-254-108-264-246-103-29-177-118-177-225 0-125 104-227 235-234l500-1c101 44 205 166 205 280 0 148-116 269-262 278m57-499h-500c0 0-178 18-176 176 0 90 79 171 176 177 0 122 78 235 206 235 101 0 168-62 192-147 145 6 244-109 249-206 4-83-69-190-147-235m-109 283l-127-126v284c0 16-13 29-29 29s-29-13-29-29v-283l-126 125c-11 11-30 11-42 0-11-12-11-30 0-42l175-174c6-6 14-9 22-8 9-1 17 2 23 8l174 174c12 12 12 30 0 42-11 11-30 11-41 0" horiz-adv-x="1000" />
<glyph glyph-name="205" unicode="&#xe897;" d="m708 555c-43 87-133 148-237 148-140 0-254-108-264-246-103-29-177-118-177-225 0-125 104-227 235-234l500-1c101 44 205 166 205 280 0 148-116 269-262 278m57-499h-500c0 0-178 18-176 176 0 90 79 171 176 177 0 122 78 235 206 235 101 0 168-62 192-147 145 6 244-109 249-206 4-83-69-190-147-235m-242 462c-6 6-14 9-23 9-8 0-16-3-22-9l-175-174c-11-11-11-30 0-41 12-12 31-12 42 0l126 124v-282c0-17 13-30 29-30 16 0 29 13 29 30v283l127-125c11-12 30-12 41 0 12 11 12 30 0 41l-174 174z" horiz-adv-x="1000" />
<glyph glyph-name="206" unicode="&#xe898;" d="m697 430c-11 11-30 11-42 0l-67-68-66 66c-12 12-30 12-42 0-11-11-11-30 0-41l66-66-67-67c-11-11-11-30 0-42 12-11 31-11 42 0l67 67 66-66c11-11 30-11 41 0 12 12 12 30 0 42l-65 65 67 68c12 12 12 30 0 42m156 214h-528c-8 0-16-2-23-8l-264-293c-6-6-9-14-8-22-1-8 2-16 8-22l264-293c6-5 14-8 21-8v-1h530c65 0 117 53 117 118v411c0 65-52 118-117 118m59-529c0-33-27-59-59-59h-516l-239 265 239 264h516c32 0 59-26 59-59v-411z" horiz-adv-x="1000" />
<glyph glyph-name="207" unicode="&#xe899;" d="m852 644h-527c-8 0-16-2-23-8l-263-293c-7-6-9-14-9-22 0-8 2-16 9-22l264-293c5-5 13-8 20-8v-1h529c65 0 118 53 118 118v411c0 65-53 118-118 118m59-529c0-33-26-59-59-59h-514l-240 265 239 264h515c33 0 59-26 59-59v-411z" horiz-adv-x="1000" />
<glyph glyph-name="208" unicode="&#xe89a;" d="m725 404l-353 322c-11 11-30 11-42 0-11-12-11-30 0-42l332-302-332-302c-11-12-11-31 0-42 12-12 31-12 42 0l353 321c6 7 9 15 8 23 1 8-2 16-8 22" horiz-adv-x="1000" />
<glyph glyph-name="209" unicode="&#xe89b;" d="m871 227l-321 352c-6 6-14 9-22 8-9 1-17-2-23-8l-321-352c-12-12-12-30 0-42s30-12 41 0l303 331 302-331c11-12 30-12 41 0 12 12 12 30 0 42" horiz-adv-x="1000" />
<glyph glyph-name="210" unicode="&#xe89c;" d="m872 579c-12 12-31 12-42 0l-302-331-303 331c-11 12-30 12-41 0-12-11-12-30 0-42l321-353c6-6 14-9 23-8 8-1 16 2 22 8l322 353c11 12 11 31 0 42" horiz-adv-x="1000" />
<glyph glyph-name="1" unicode="&#xe89d;" d="m945 737c-34 33-89 33-123 0l-505-499c-62 2-148-20-185-141-28-64-102-61-102-61 154-171 336-74 378-32 36 37 41 82 38 118l499 493c34 34 34 88 0 122m-578-693c-29-26-159-86-235-28 0 0 27 20 47 62 48 127 167 108 167 108l41-40c1-1 31-54-20-102m61 142c-4 4-41 41-41 41l62 61 41-41-62-61z m476 470l-373-368-41 40 373 368c11 11 29 11 41 0s11-29 0-40" horiz-adv-x="1000" />
<glyph glyph-name="2" unicode="&#xe89e;" d="m733 172l149 149h-88l-323 323-9 147-403-403 147-9 323-323v-88l149 149 239-208 24 24-208 239z m-161-74l-324 324 181 180 323-323-180-181z" horiz-adv-x="1000" />
<glyph glyph-name="3" unicode="&#xe89f;" d="m676 703v-588c0-97-79-177-176-177-97 0-176 80-176 177v529c0 65 52 118 117 118s118-53 118-118v-529c0-33-26-59-59-59s-59 26-59 59v470h-58v-470c0-65 52-118 117-118 65 0 118 53 118 118v529c0 97-79 176-177 176-97 0-176-79-176-176v-559c14-116 115-205 235-205 120 0 221 89 235 205v618h-59z" horiz-adv-x="1000" />
<glyph glyph-name="4" unicode="&#xe8a0;" d="m869 462l-418-414c-69-68-182-68-251 0s-69 180 0 248l377 373c46 46 121 46 167 0 46-46 46-120 0-166l-377-372c-23-23-60-23-83 0-24 23-24 60 0 83l334 331-41 41-335-331c-47-46-47-120 0-165 46-46 121-46 167 0l377 372c69 69 69 180 0 248-70 69-182 69-251 0l-398-393 2-1c-73-92-66-225 19-309 85-85 220-91 312-20l2-1 439 435-42 41z" horiz-adv-x="1000" />
<glyph glyph-name="5" unicode="&#xe8a1;" d="m823 820h-646c-65 0-118-52-118-117v-706c0-65 53-117 118-117h646c65 0 118 52 118 117v706c0 65-53 117-118 117m-646-58h646c12 0 23-4 32-10l-120-108h-470l-120 108c9 6 20 10 32 10m705-765c0-32-26-59-59-59h-646c-33 0-59 27-59 59v699l118-111h529l117 111v-699z" horiz-adv-x="1000" />
<glyph glyph-name="6" unicode="&#xe8a2;" d="m853 703h-412c0 65-52 117-117 117h-177c-65 0-117-52-117-117v-706c0-65 52-117 117-117h706c65 0 117 52 117 117v588c0 65-52 118-117 118m59-706c0-32-27-59-59-59h-706c-32 0-58 27-58 59v471h823v-471z m0 529h-823v177c0 32 26 59 58 59h177c32 0 59-27 59-59v-59h470c32 0 59-26 59-59v-59z" horiz-adv-x="1000" />
<glyph glyph-name="7" unicode="&#xe8a3;" d="m706 791h-412c-65 0-117-53-117-118v-646c0-65 52-118 117-118l206 206 206-206c65 0 117 53 117 118v646c0 65-52 118-117 118m59-764c0-33-27-59-59-59l-206 206-206-206c-32 0-58 26-58 59v646c0 33 26 59 58 59h412c32 0 59-26 59-59v-646z" horiz-adv-x="1000" />
<glyph glyph-name="8" unicode="&#xe8a4;" d="m500 232c16 0 29 14 29 30v353c0 16-13 29-29 29-16 0-29-13-29-29v-353c0-16 13-30 29-30m176 0c17 0 30 14 30 30v264c0 17-13 30-30 30-16 0-29-13-29-30v-264c0-16 13-30 29-30m-646 588v-58h59v-559c0-70 48-118 117-118h176l-117-205 88 0 118 205h58l118-205 88 0-117 205h176c69 0 118 48 118 118v559h58v58h-940z m823-617c0-36-24-59-59-59h-588c-35 0-59 23-59 59 0 0 0 522 0 559h706c0-59 0-559 0-559m-529 29c16 0 29 14 29 30v117c0 17-13 30-29 30s-30-13-30-30v-117c0-16 13-30 30-30" horiz-adv-x="1000" />
<glyph glyph-name="9" unicode="&#xe8a5;" d="m471 820h-59v-88c-214-23-382-206-382-426 0-235 191-426 426-426 174 0 323 104 389 253l67-18c32 53 58 128 58 218 0 269-235 487-499 487m-15-882c-203 0-367 165-367 368 0 185 144 342 323 367v-394l373-130c-49-126-192-211-329-211m413 247l-398 136v441c228 1 437-197 437-429 0-60-16-106-39-148" horiz-adv-x="1000" />
<glyph glyph-name="10" unicode="&#xe8a6;" d="m823 820h-646c-65 0-118-52-118-117v-706c0-65 53-117 118-117h646c65 0 118 52 118 117v706c0 65-53 117-118 117m59-823c0-32-26-59-59-59h-646c-33 0-59 27-59 59v588h764v-588z m0 647h-764v59c0 32 26 59 59 59h646c33 0 59-27 59-59v-59z m-147-588c49 0 88 40 88 88s-39 88-88 88c-48 0-88-39-88-88s40-88 88-88m-29 118h59v-59h-59v59z m-441 117c49 0 88 40 88 88 0 49-39 89-88 89-49 0-88-40-88-89 0-48 39-88 88-88m-30 118h59v-59h-59v59z m500-118c49 0 88 40 88 88 0 49-39 89-88 89-48 0-88-40-88-89 0-48 40-88 88-88m-29 118h59v-59h-59v59z m-206-118c49 0 88 40 88 88 0 49-39 89-88 89-49 0-88-40-88-89 0-48 39-88 88-88m-29 118h58v-59h-58v59z m29-353c49 0 88 40 88 88s-39 88-88 88c-49 0-88-39-88-88s39-88 88-88m-29 118h58v-59h-58v59z m-206-118c49 0 88 40 88 88s-39 88-88 88c-49 0-88-39-88-88s39-88 88-88m-30 118h59v-59h-59v59z" horiz-adv-x="1000" />
<glyph glyph-name="12" unicode="&#xe8a8;" d="m535 476c12 12 12 31 0 42l-204 235c-6 6-14 9-22 9-8 0-16-3-23-9l-204-235c-11-11-11-30 0-42 12-11 31-11 42 0l156 180v-718h59v717l154-179c12-11 31-11 42 0m362-479h-411c-17 0-30-13-30-29s13-30 30-30h411c16 0 29 14 29 30s-13 29-29 29m-353 647h353c16 0 29 14 29 30 0 16-13 30-29 30h-353c-16 0-29-14-29-30 0-16 13-30 29-30m353-294h-411c-17 0-30-13-30-29 0-16 13-29 30-29h411c16 0 29 13 29 29 0 16-13 29-29 29m0 177l-235-1c-16 0-29-12-29-28 0-17 13-30 29-30l235 0c16 0 29 13 29 30 0 16-13 29-29 29m0-353h-411c-17 0-30-13-30-30s13-29 30-29h411c16 0 29 13 29 29s-13 30-29 30" horiz-adv-x="1000" />
<glyph glyph-name="13" unicode="&#xe8a9;" d="m897 55h-353c-16 0-29-13-29-29 0-16 13-30 29-30l353 1c16 0 29 13 29 29 0 16-13 29-29 29m-411 648l411 0c16 0 29 13 29 29 0 16-13 30-29 30h-411c-17 0-30-14-30-30 0-16 13-29 30-29m49-479c-11 11-30 11-42 0l-154-179v717h-59v-718l-156 180c-11 11-30 11-42 0-11-12-11-31 0-42l204-235c7-6 15-9 23-9 8 0 16 3 22 9l204 235c12 11 12 30 0 42m362 361h-411c-17 0-30-13-30-29 0-17 13-30 30-30h411c16 0 29 13 29 30 0 16-13 29-29 29m0-353h-235c-16 0-29-13-29-29s13-29 29-29h235c16 0 29 12 29 29s-13 29-29 29m0 176h-411c-17 0-30-13-30-29s13-29 30-29l411 0c16 0 29 13 29 29s-13 29-29 29" horiz-adv-x="1000" />
<glyph glyph-name="14" unicode="&#xe8aa;" d="m882 497h-764c-16 0-29-13-29-29 0-17 13-30 29-30h764c16 0 30 13 30 30 0 16-14 29-30 29m-764 176h764c16 0 30 14 30 30 0 16-14 29-30 29h-764c-16 0-29-13-29-29 0-16 13-30 29-30m441-646h-441c-16 0-29-13-29-30s13-29 29-29h441c16 0 29 13 29 29s-13 30-29 30m323 235h-764c-16 0-29-13-29-30s13-29 29-29h764c16 0 30 13 30 29s-14 30-30 30" horiz-adv-x="1000" />
<glyph glyph-name="15" unicode="&#xe8ab;" d="m235 497c-16 0-29-13-29-29 0-17 13-30 29-30h530c16 0 29 13 29 30 0 16-13 29-29 29h-530z m-117 176h764c16 0 30 14 30 30 0 16-14 29-30 29h-764c-16 0-29-13-29-29 0-16 13-30 29-30m764-411h-764c-16 0-29-13-29-30s13-29 29-29h764c16 0 30 13 30 29s-14 30-30 30m-176-235h-412c-16 0-29-13-29-30s13-29 29-29h412c16 0 29 13 29 29s-13 30-29 30" horiz-adv-x="1000" />
<glyph glyph-name="17" unicode="&#xe8ad;" d="m647-3c16 0 29 13 29 30v352c0 17-13 30-29 30-16 0-29-13-29-30v-352c0-17 13-30 29-30m-147 0c16 0 29 13 29 30v352c0 17-13 30-29 30-16 0-29-13-29-30v-352c0-17 13-30 29-30m323 706h-176v59c0 32-26 58-59 58h-176c-33 0-59-26-59-58v-59h-176c-33 0-59-27-59-59v-59c0-32 26-59 59-59v-529c0-65 52-117 117-117h412c65 0 117 52 117 117v529c33 0 59 27 59 59v59c0 32-26 59-59 59m-411 29c0 16 13 30 29 30h118c16 0 29-14 29-30v-29h-176v29z m353-735c0-32-27-59-59-59h-412c-32 0-58 27-58 59v529h529v-529z m29 588h-588c-16 0-29 13-29 30 0 16 13 29 29 29h588c16 0 29-13 29-29 0-17-13-30-29-30m-441-588c16 0 29 13 29 30v352c0 17-13 30-29 30-16 0-29-13-29-30v-352c0-17 13-30 29-30" horiz-adv-x="1000" />
<glyph glyph-name="18" unicode="&#xe8ae;" d="m853 673h-177v59c0 33-26 59-58 59h-235c-33 0-59-26-59-59v-59h-177c-65 0-117-52-117-117v-529c0-65 52-118 117-118h706c65 0 117 53 117 118v529c0 65-52 117-117 117m-471 30c0 16 14 29 30 29h176c16 0 30-13 30-29v-30h-236v30z m530-676c0-33-27-59-59-59h-706c-32 0-58 26-58 59v323h298c-3-9-4-19-4-29 0-65 52-118 117-118 65 0 118 53 118 118 0 10-2 20-5 29h299v-323z m-471 294c0 10 3 20 8 29h102c5-9 8-19 8-29 0-33-26-59-59-59s-59 26-59 59m471 88h-823v147c0 32 26 59 58 59h706c32 0 59-27 59-59v-147z" horiz-adv-x="1000" />
<glyph glyph-name="19" unicode="&#xe8af;" d="m57 477l399-179c35-17 50-17 88 0l399 179c30 14 31 72 0 89l-399 211c-31 18-53 17-88 0l-399-211c-31-20-32-72 0-89m443 264l408-219-408-172-408 172 408 219z m0-783l-408 188c2-1-36 16-62 31 0-22 5-64 27-75l399-180c35-17 50-17 88 0l399 180c20 9 27 52 27 75-25-13-62-31-62-31l-408-188z m-443 332l399-180c35-16 50-16 88 0l399 180c20 9 27 52 27 75-25-13-62-31-62-31l-408-188-408 188c2-1-36 16-62 31 0-23 5-64 27-75" horiz-adv-x="1000" />
<glyph glyph-name="20" unicode="&#xe8b0;" d="m853 321h-59v323c0 65-53 118-118 118h-352c-65 0-118-53-118-118v-323h-59c-65 0-117-53-117-118v-59c0-65 52-117 117-117h63c13-51 59-89 114-89h352c55 0 101 38 114 89h63c65 0 117 52 117 117v59c0 65-52 118-117 118m-588 323c0 32 26 59 59 59h352c33 0 59-27 59-59v-323h-470v323z m411-647h-352c-33 0-59 27-59 59s26 59 59 59h352c33 0 59-26 59-59s-26-59-59-59m236 147c0-32-27-59-59-59h-63c-13 51-59 89-114 89h-352c-55 0-101-38-114-89h-63c-32 0-58 27-58 59v59c0 33 26 59 58 59h706c32 0 59-26 59-59v-59z" horiz-adv-x="1000" />
<glyph glyph-name="21" unicode="&#xe8b1;" d="m940 819c-34-16-911-441-911-441s295-178 294-176c-1 1 176-324 176-324s463 897 471 912c6 18-8 38-30 29m-793-441l676 324-471-441c0 0-205 117-205 117m352-382c0 0-92 177-117 235l472 448-355-683z" horiz-adv-x="1000" />
<glyph glyph-name="22" unicode="&#xe8b2;" d="m500 820l-470-264v-559c0-65 52-117 117-117h706c65 0 117 52 117 117v559l-470 264z m-411-823v460l266-213-264-264c-1 6-2 11-2 17m45-57l270 270 96-66 96 66 270-270c-4-1-728-1-732 0m778 57c0-6-2-11-3-17l-264 264 267 213v-460z m-412 216l-411 313 410 226 413-226-412-313z" horiz-adv-x="1000" />
<glyph glyph-name="23" unicode="&#xe8b3;" d="m529 174h-352c-17 0-30-13-30-30s13-29 30-29h352c17 0 30 13 30 29s-13 30-30 30m0 117h-352c-17 0-30-13-30-29s13-30 30-30h352c17 0 30 14 30 30s-13 29-30 29m324 412h-706c-65 0-117-53-117-118v-470c0-65 52-118 117-118h706c65 0 117 53 117 118v470c0 65-52 118-117 118m59-588c0-33-27-59-59-59h-706c-32 0-58 26-58 59v470c0 33 26 59 58 59h706c32 0 59-26 59-59v-470z m-118 470h-118c-32 0-58-26-58-59v-117c0-33 26-59 58-59h118c32 0 59 26 59 59v117c0 33-27 59-59 59m0-147c0-16-13-29-29-29h-59c-16 0-30 13-30 29v59c0 16 14 29 30 29h59c16 0 29-13 29-29v-59z" horiz-adv-x="1000" />
<glyph glyph-name="24" unicode="&#xe8b4;" d="m853 703h-706c-65 0-117-53-117-118v-470c0-65 52-118 117-118h706c65 0 117 53 117 118v470c0 65-52 118-117 118m29-59l-382-294-382 294h764z m-793-529v470l264-206-262-281c-1 5-2 11-2 17m45-57l266 282 100-76 96 77 270-283c-4-1-728-1-732 0m778 57c0-6-2-12-3-17l-262 281 265 206v-470z" horiz-adv-x="1000" />
<glyph glyph-name="25" unicode="&#xe8b5;" d="m814 820h-628c-86 0-156-69-156-155v-497c0-86 60-141 147-141h195l128-147 128 147h195c87 0 147 55 147 141v497c0 86-70 155-156 155m98-646c0-43-45-89-89-89h-235l-88-117-88 117h-235c-44 0-88 46-88 89v499c0 43 44 89 88 89h646c44 0 89-46 89-89v-499z" horiz-adv-x="1000" />
<glyph glyph-name="26" unicode="&#xe8b6;" d="m500 820c-260 0-470-180-470-403 0-184 143-338 339-387l131-150 131 150c196 49 339 203 339 387 0 223-210 403-470 403m103-724l-65-81-38-47-103 128c-177 38-309 170-309 328 0 186 185 338 412 338s412-152 412-338c0-158-132-290-309-328" horiz-adv-x="1000" />
<glyph glyph-name="27" unicode="&#xe8b7;" d="m236 438c24 0 44 20 44 44 0 25-20 44-44 44-25 0-45-19-45-44 0-24 20-44 45-44m176 0c24 0 44 20 44 44 0 25-20 44-44 44-24 0-44-19-44-44 0-24 20-44 44-44m176 0c25 0 44 20 44 44 0 25-19 44-44 44-24 0-44-19-44-44 0-24 20-44 44-44m-260-286c23-4 74-8 99-8 211 0 352 157 352 342 0 185-177 334-352 334-212 0-383-149-383-334 0-107 41-198 118-263v-167l166 96z m-225 330c0 155 140 280 324 280 146 0 294-125 294-280 0-154-116-279-294-279-27 0-81 3-106 8l-100-67v104c-72 59-118 136-118 234m734 70c0-9 1-17 1-26 0-18-2-37-4-55 39-46 63-103 63-165 0-98-59-184-147-234v-104l-100 67c-25-5-50-8-76-8-77 0-117 23-172 61-16-2-32-2-49-2-12 0-23 0-35 1 70-68 142-112 256-112 24 0 47 2 70 6l165-101v166c89 62 147 157 147 264 0 95-46 181-119 242" horiz-adv-x="1000" />
<glyph glyph-name="28" unicode="&#xe8b8;" d="m265 468c-33 0-59-27-59-59 0-33 26-59 59-59s59 26 59 59c0 32-27 59-59 59m235 0c-32 0-59-27-59-59 0-33 27-59 59-59s59 26 59 59c0 32-26 59-59 59m235 0c-32 0-59-27-59-59 0-33 27-59 59-59 33 0 59 26 59 59 0 32-26 59-59 59m-235 352c-260 0-470-184-470-411 0-130 69-246 176-321v-208l206 125c29-5 58-8 88-8 260 0 470 185 470 412 0 227-210 411-470 411m0-764c-34 0-67 4-99 11l-139-83 2 136c-106 64-175 169-175 289 0 195 184 353 411 353s412-158 412-353c0-195-185-353-412-353" horiz-adv-x="1000" />
<glyph glyph-name="29" unicode="&#xe8b9;" d="m706 497h-412c-16 0-29-13-29-29 0-17 13-30 29-30h412c16 0 29 13 29 30 0 16-13 29-29 29m-59-176h-294c-16 0-29-13-29-30s13-29 29-29h294c16 0 29 13 29 29s-13 30-29 30m-147 499c-260 0-470-184-470-411 0-130 69-246 176-321v-208l206 125c29-5 58-8 88-8 260 0 470 185 470 412 0 227-210 411-470 411m0-764c-34 0-67 4-99 11l-139-83 2 136c-106 64-175 169-175 289 0 195 184 353 411 353s412-158 412-353c0-195-185-353-412-353" horiz-adv-x="1000" />
<glyph glyph-name="31" unicode="&#xe8bb;" d="m916 633c-15-17-39-38-75-71-37-37-90-37-128 0-37 38-37 91 0 128 35 35 72 75 71 76-100 46-223 28-306-55-75-75-97-183-65-278l-319-318c-47-47-47-123 0-170 47-47 124-47 171 0l319 318c95-32 203-10 278 65 83 83 100 205 54 305m-96-262c-68-68-169-79-249-36l-349-348c-23-23-62-23-85 0-24 24-24 62 0 86l348 347c-43 80-32 181 36 249 41 40 93 59 146 60-55-59-54-152 3-209 58-58 151-59 210-3 0-53-20-106-60-146" horiz-adv-x="1000" />
<glyph glyph-name="32" unicode="&#xe8bc;" d="m500 232c-16 0-29-13-29-29v-118c0-16 13-29 29-29 16 0 29 13 29 29v118c0 16-13 29-29 29m235 117v236c0 130-105 235-235 235-130 0-235-105-235-235v-236c-37-49-59-109-59-175 0-163 132-294 294-294 162 0 294 131 294 294 0 66-22 126-59 175m-411 236c0 98 79 177 176 177 97 0 176-79 176-177v-177c-49 37-110 60-176 60-66 0-127-23-176-60v177z m176-647c-130 0-235 106-235 236s105 235 235 235c126 0 235-110 235-235 0-130-105-236-235-236" horiz-adv-x="1000" />
<glyph glyph-name="33" unicode="&#xe8bd;" d="m500 468c-66 0-127-23-176-60v177c0 98 79 177 176 177 97 0 176-79 176-177h59c0 130-105 235-235 235-130 0-235-105-235-235v-236c-37-49-59-109-59-175 0-163 132-294 294-294 162 0 294 131 294 294 0 162-132 294-294 294m0-530c-130 0-235 106-235 236s105 235 235 235c130 0 235-105 235-235s-105-236-235-236m0 294c-16 0-29-13-29-29v-118c0-16 13-29 29-29 16 0 29 13 29 29v118c0 16-13 29-29 29" horiz-adv-x="1000" />
<glyph glyph-name="34" unicode="&#xe8be;" d="m706 585h235c16 0 29 13 29 30 0 16-13 29-29 29h-235c-16 0-30-13-30-29 0-17 14-30 30-30m235-294h-176c-17 0-30-13-30-29s13-30 30-30h176c16 0 29 14 29 30s-13 29-29 29m0 177h-235c-16 0-30-14-30-30 0-16 14-29 30-29h235c16 0 29 13 29 29 0 16-13 30-29 30m-384-128c38 50 61 116 61 186 0 163-119 294-265 294-146 0-264-131-264-294 0-70 22-136 60-186-69-24-119-89-119-166v-118c0-97 79-176 176-176h294c97 0 176 79 176 176v118c0 77-49 142-119 166m-410 186c0 130 92 236 206 236 114 0 206-106 206-236 0-129-92-235-206-235-114 0-206 106-206 235m471-455c0-73-65-133-145-133h-240c-80 0-144 60-144 133v88c0 63 47 115 110 128 44-34 97-55 154-55 57 0 110 21 154 55 63-13 111-65 111-128v-88z m323 44h-176c-17 0-30-13-30-30s13-29 30-29h176c16 0 29 13 29 29s-13 30-29 30" horiz-adv-x="1000" />
<glyph glyph-name="35" unicode="&#xe8bf;" d="m704 340c38 50 61 116 61 186 0 163-119 294-265 294-146 0-264-131-264-294 0-70 22-136 60-186-69-24-119-89-119-166v-118c0-97 79-176 176-176h294c97 0 176 79 176 176v118c0 77-50 142-119 166m-410 186c0 130 92 236 206 236s206-106 206-236c0-129-92-235-206-235s-206 106-206 235m471-455c0-73-65-133-145-133h-240c-80 0-144 60-144 133v88c0 63 47 115 110 128 44-34 97-55 154-55 57 0 110 21 154 55 63-13 111-65 111-128v-88z" horiz-adv-x="1000" />
<glyph glyph-name="36" unicode="&#xe8c0;" d="m947 797c-37 36-101 28-138-9l-187-187-348 130c-33 8-67 19-108-22-21-21-65-65 0-130l238-195-155-155-145 36c-21 6-35 1-46-11-6-7-46-37-18-65l168-131 131-168c20-20 39-8 65 17 16 16 13 25 8 49l-33 143 154 155 195-238c65-65 109-22 130 0 41 41 30 75 22 108l-129 348 186 188c37 36 47 100 10 137m-40-99l-219-220 133-364c6-21 2-47-6-55-24-24-41-13-50-3l-212 287-235-236 43-156c-17 16-114 147-117 149-1 1-129 97-143 111l150-41 239 235-284 210c-8 7-19 29 3 51 9 8 34 11 55 4l363-131 222 218c15 15 46 14 59 0 14-14 15-43-1-59" horiz-adv-x="1000" />
<glyph glyph-name="37" unicode="&#xe8c1;" d="m930 704l-85 84c-23 24-61 24-84 0l-127-168c-20-29-24-61 0-85l51-51c-38-52-84-108-136-159-59-59-124-112-183-156l-50 50c-23 23-56 19-84 0l-169-127c-29-19-24-61 0-84l84-84c47-47 108-32 169 0 0 0 187 104 347 264 150 150 267 347 267 347 24 67 46 123 0 169m-43-126c-50-95-161-242-253-338-107-116-360-274-360-274-19-10-74-11-88 4l-54 53c-11 19-16 41 0 54l107 81c19 12 39 15 54 0l67-66c15 10 264 174 403 399l-68 67c-15 15-12 36 0 54l81 107c15 20 39 15 54 0l54-53c21-20 15-66 3-88" horiz-adv-x="1000" />
<glyph glyph-name="38" unicode="&#xe8c2;" d="m912 791l-265-176h-382c-130 0-235-76-235-206 0-110 74-186 176-206 1-8 0-235 0-235 0-33 26-59 59-59h88c33 0 59 26 59 59v235h235l265-176c32 0 58 26 58 58v647c0 33-26 59-58 59m-559-794c0-16-13-29-29-29h-30c-16 0-29 13-29 29v206h88v-206z m147 265h-235c-59 0-176 17-176 147 0 130 116 149 176 147h235v-294z m147 0h-88v294h88v-294z m265-177l-206 147v353l206 147v-647z" horiz-adv-x="1000" />
<glyph glyph-name="39" unicode="&#xe8c3;" d="m368 615c0 81 66 147 147 147 64 0 117-41 138-98l44 44c-34 67-103 112-182 112-114 0-206-92-206-205v-294c0-2 59 54 59 54v240z m-116-357c-1 1-2 2-2 4h-59c4-18 8-35 14-51l47 47z m263-84c-26 0-49 7-70 18l-43-43c32-22 71-34 113-34 113 0 205 92 205 206v150l-58-60v-90c0-82-66-147-147-147m0-118c-57 0-111 19-156 50l-41-42c48-36 105-60 167-65v-61h-29c-16 0-29-13-29-29s13-29 29-29h117c17 0 30 13 30 29s-13 29-30 29h-29v61c145 13 268 122 294 263h-59c-27-118-138-206-264-206m311 676l-694-664 42-41 694 663-42 42z" horiz-adv-x="1000" />
<glyph glyph-name="40" unicode="&#xe8c4;" d="m500 115c114 0 206 92 206 206v294c0 113-92 205-206 205s-206-92-206-205v-294c0-114 92-206 206-206m-147 500c0 81 66 147 147 147 81 0 147-66 147-147v-294c0-82-66-147-147-147-81 0-147 65-147 147v294z m470-353h-58c-27-118-139-206-265-206s-238 88-264 206h-59c26-141 149-250 294-263v-61h-30c-16 0-29-13-29-29s13-29 29-29h118c16 0 29 13 29 29s-13 29-29 29h-30v61c146 13 268 122 294 263" horiz-adv-x="1000" />
<glyph glyph-name="41" unicode="&#xe8c5;" d="m794-62h-59v206c0 114-92 206-206 206 114 0 206 92 206 206v206h59c16 0 29 13 29 29 0 16-13 29-29 29h-588c-16 0-29-13-29-29 0-16 13-29 29-29h59v-206c0-114 92-206 206-206-114 0-206-92-206-206v-206h-59c-16 0-29-13-29-29s13-29 29-29h588c16 0 29 13 29 29s-13 29-29 29m-470 618v206h352v-206c0-81-69-147-154-147h-44c-85 0-154 66-154 147m352-618h-352v206c0 81 69 147 154 147h44c85 0 154-66 154-147v-206z" horiz-adv-x="1000" />
<glyph glyph-name="42" unicode="&#xe8c6;" d="m529 672c0 0 0 1 0 1v59h118c16 0 29 13 29 30 0 16-13 29-29 29h-294c-16 0-29-13-29-29 0-17 13-30 29-30h118v-59c0 0 0-1 0-1-197-15-353-180-353-381 0-211 171-382 382-382 211 0 382 171 382 382 0 201-155 366-353 381m-29-704c-179 0-323 145-323 323 0 179 144 324 323 324s323-145 323-324c0-178-144-323-323-323m29 406v152c0 17-13 30-29 30-16 0-29-13-29-30v-152c-35-12-59-44-59-83 0-48 39-88 88-88 49 0 88 40 88 88 0 39-24 71-59 83" horiz-adv-x="1000" />
<glyph glyph-name="43" unicode="&#xe8c7;" d="m471-3h58v59h-58v-59z m-243 152l40-41 41 41-41 41-40-41z m272 554c-16 0-29-13-29-30v-294h-236c-16 0-29-13-29-30 0-16 13-29 29-29h265c16 0 29 13 29 29v324c0 17-13 30-29 30m-185-127l-42 41-41-41 41-42 42 42z m355-425l42-42 41 42-41 41-42-41z m-170 669c-260 0-470-210-470-470 0-260 210-470 470-470 260 0 470 210 470 470 0 260-210 470-470 470m0-882c-227 0-411 185-411 412 0 227 184 412 411 412s412-185 412-412c0-227-185-412-412-412m179 639l40-41 41 41-41 41-40-41z m115-256h59v58h-59v-58z" horiz-adv-x="1000" />
<glyph glyph-name="44" unicode="&#xe8c8;" d="m89 673c0 49 39 89 88 89h58v58h-58c-81 0-147-65-147-147v-58h59v58z m617-294h-177v206c0 16-13 30-29 30-16 0-29-14-29-30v-235c0-16 13-29 29-29h206c16 0 29 13 29 29s-13 29-29 29m117 441h-58v-58h58c49 0 89-40 89-89v-58h58v58c0 82-65 147-147 147m89-470c0 227-185 412-412 412s-411-185-411-412c0-156 86-291 214-361l-97-109h88l79 79c40-13 83-21 127-21 44 0 87 8 127 21l79-79h88l-97 109c128 70 215 205 215 361m-412-353c-195 0-353 158-353 353 0 195 158 353 353 353 195 0 353-158 353-353 0-195-158-353-353-353" horiz-adv-x="1000" />
<glyph glyph-name="45" unicode="&#xe8c9;" d="m706 232h59c32 0 58 27 58 59v59c0 33-26 59-58 59h-59c-33 0-59-26-59-59v-59c0-32 26-59 59-59m0 118h59v-59h-59v59z m-471-118h59c33 0 59 27 59 59v59c0 33-26 59-59 59h-59c-32 0-58-26-58-59v-59c0-32 26-59 58-59m0 118h59v-59h-59v59z m588 412h-117v29c0 16-13 29-30 29-16 0-29-13-29-29v-29h-294v29c0 16-13 29-29 29-17 0-30-13-30-29v-29h-117c-65 0-118-53-118-118v-647c0-65 53-117 118-117h646c65 0 118 52 118 117v647c0 65-53 118-118 118m59-765c0-32-26-59-59-59h-646c-33 0-59 27-59 59v529h764v-529z m0 588h-764v59c0 32 26 59 59 59h117v-30c0-16 13-29 30-29 16 0 29 13 29 29v30h294v-30c0-16 13-29 29-29 17 0 30 13 30 29v30h117c33 0 59-27 59-59v-59z m-176-588h59c32 0 58 27 58 59v59c0 32-26 59-58 59h-59c-33 0-59-27-59-59v-59c0-32 26-59 59-59m0 118h59v-59h-59v59z m-235-118h58c33 0 59 27 59 59v59c0 32-26 59-59 59h-58c-33 0-59-27-59-59v-59c0-32 26-59 59-59m0 118h58v-59h-58v59z m0 117h58c33 0 59 27 59 59v59c0 33-26 59-59 59h-58c-33 0-59-26-59-59v-59c0-32 26-59 59-59m0 118h58v-59h-58v59z m-236-353h59c33 0 59 27 59 59v59c0 32-26 59-59 59h-59c-32 0-58-27-58-59v-59c0-32 26-59 58-59m0 118h59v-59h-59v59z" horiz-adv-x="1000" />
<glyph glyph-name="46" unicode="&#xe8ca;" d="m676 644h-352c-163 0-294-132-294-294 0-162 131-294 294-294h352c163 0 294 132 294 294 0 162-131 294-294 294m0-529h-352c-130 0-235 105-235 235 0 130 105 235 235 235h352c130 0 236-105 236-235 0-130-106-235-236-235m0 411c-97 0-176-79-176-176 0-97 79-176 176-176s177 79 177 176c0 97-79 176-177 176m0-294c-64 0-117 53-117 118 0 65 53 118 117 118s118-53 118-118c0-65-53-118-118-118" horiz-adv-x="1000" />
<glyph glyph-name="47" unicode="&#xe8cb;" d="m324 526c-98 0-177-79-177-176 0-97 79-176 177-176 97 0 176 79 176 176 0 97-79 176-176 176m0-294c-65 0-118 53-118 118 0 65 53 118 118 118s117-53 117-118c0-65-52-118-117-118m352 412h-352c-163 0-294-132-294-294 0-162 131-294 294-294h352c163 0 294 132 294 294 0 162-131 294-294 294m0-529h-352c-130 0-235 105-235 235 0 130 105 235 235 235h352c130 0 236-105 236-235 0-130-106-235-236-235" horiz-adv-x="1000" />
<glyph glyph-name="48" unicode="&#xe8cc;" d="m794 115h-328c-13 51-58 88-113 88-55 0-100-37-113-88h-34c-16 0-29-13-29-30s13-29 29-29h34c13-51 58-88 113-88 55 0 100 37 113 88h328c16 0 29 13 29 29s-13 30-29 30m-441-100c-39 0-70 32-70 70 0 39 31 71 70 71 39 0 71-32 71-71 0-38-32-70-71-70m441 335h-63c-13 51-59 88-113 88-55 0-101-37-114-88h-298c-16 0-29-13-29-29 0-17 13-30 29-30h298c13-50 59-88 114-88 54 0 100 38 113 88h63c16 0 29 13 29 30 0 16-13 29-29 29m-176-100c-39 0-71 32-71 71 0 39 32 70 71 70 39 0 70-31 70-70 0-39-31-71-70-71m176 335h-328c-13 51-58 88-113 88-55 0-100-37-113-88h-34c-16 0-29-13-29-29 0-16 13-30 29-30h34c13-50 58-88 113-88 55 0 100 38 113 88h328c16 0 29 14 29 30 0 16-13 29-29 29m-441-100c-39 0-70 32-70 71 0 39 31 70 70 70 39 0 71-31 71-70 0-39-32-71-71-71m500 335h-706c-65 0-117-52-117-117v-706c0-65 52-117 117-117h706c65 0 117 52 117 117v706c0 65-52 117-117 117m59-823c0-32-27-59-59-59h-706c-32 0-58 27-58 59v706c0 32 26 59 58 59h706c32 0 59-27 59-59v-706z" horiz-adv-x="1000" />
<glyph glyph-name="49" unicode="&#xe8cd;" d="m500 497c-80 0-146-66-146-147 0-81 66-147 146-147s146 66 146 147c0 81-65 147-146 147m0-235c-48 0-87 39-87 88 0 49 39 88 87 88s87-39 87-88c0-49-39-88-87-88m412-16l-68 40c3 21 6 42 6 64s-3 43-6 64l68 40c28 16 37 52 21 80l-58 102c-16 28-52 38-80 22l-69-40c-32 27-69 50-109 64v50c0 33-26 59-59 59h-116c-32 0-59-26-59-59v-50c-40-14-77-37-109-65l-69 41c-28 16-64 6-80-22l-58-102c-16-28-7-64 21-80l69-40c-4-21-7-42-7-64s3-43 7-64l-69-40c-28-16-37-52-21-80l58-102c16-28 52-38 80-22l69 41c32-28 69-51 109-65v-50c0-33 27-59 59-59h116c33 0 59 26 59 59v50c40 14 77 37 109 65l69-41c28-16 64-6 80 22l58 102c16 28 7 64-21 80m-44-76l-29-51c-8-14-26-19-40-11l-81 47c-41-47-97-80-160-93v-65c0-16-13-29-29-29h-58c-16 0-29 13-29 29v65c-63 13-119 46-160 93l-81-47c-14-8-32-3-40 11l-29 51c-8 14-3 32 11 40l81 47c-10 29-15 60-15 93 0 33 5 64 15 93l-81 47c-14 8-19 26-11 40l29 51c8 14 26 19 40 11l81-47c41 47 97 80 160 93v65c0 16 13 29 29 29h58c16 0 29-13 29-29v-65c63-13 119-46 160-93l81 47c14 8 32 3 40-11l29-51c8-14 3-32-11-40l-81-47c10-29 16-60 16-93 0-33-6-64-16-93l81-47c14-8 19-26 11-40" horiz-adv-x="1000" />
</font>
</defs>
</svg>
